<svg width="1440" height="683" viewBox="0 0 1440 683" fill="none" xmlns="http://www.w3.org/2000/svg">
<path fill-rule="evenodd" clip-rule="evenodd" d="M489.718 251.25C438.567 251.25 397.218 292.253 397.218 343C397.218 393.948 438.52 435.25 489.468 435.25C540.333 435.25 581.583 394.083 581.718 343.25H605.718C605.583 407.338 553.588 459.25 489.468 459.25C425.265 459.25 373.218 407.203 373.218 343C373.218 278.797 425.515 227.25 489.718 227.25C492.229 227.25 494.722 227.329 497.193 227.484L489.718 227.5L489.718 251.25Z" fill="#F3F3EE"/>
<path fill-rule="evenodd" clip-rule="evenodd" d="M692.218 436.352C693.955 436.45 695.706 436.5 697.468 436.5C748.416 436.5 789.718 395.198 789.718 344.25C789.718 293.302 748.416 252 697.468 252C646.587 252 605.718 292.984 605.718 344C605.718 344.083 605.718 344.167 605.718 344.25H581.718C581.718 344.167 581.718 344.083 581.718 344C581.718 279.797 633.265 228 697.468 228C761.671 228 813.718 280.047 813.718 344.25C813.718 408.453 761.671 460.5 697.468 460.5C695.708 460.5 693.958 460.461 692.218 460.383V436.352Z" fill="#C6B79B"/>
<path fill-rule="evenodd" clip-rule="evenodd" d="M692.218 460.501C692.052 460.5 691.885 460.5 691.718 460.5C640.032 460.5 597.218 502.028 597.218 552.25C597.218 603.198 638.52 644.5 689.468 644.5C740.416 644.5 781.718 603.198 781.718 552.25H805.718C805.718 616.453 753.671 668.5 689.468 668.5C625.265 668.5 573.218 616.453 573.218 552.25C573.218 488.047 627.515 436.5 691.718 436.5C691.885 436.5 692.052 436.5 692.218 436.501V460.501Z" fill="#8D7F64"/>
<path fill-rule="evenodd" clip-rule="evenodd" d="M1003.72 556.858C1004.42 497.558 967.043 450.753 911.077 450.093C853.568 449.416 806.326 495.163 805.464 552.521L781.465 552.238C782.485 481.522 840.701 425.262 911.359 426.095C983.79 426.949 1028.53 488.043 1027.72 557.141L1003.72 556.858Z" fill="#6B6353"/>
<path d="M1131.25 671L1562.25 671" stroke="#6B6353" stroke-width="24"/>
<path d="M1131.25 671C1066.63 671 1014.25 619.513 1014.25 556" stroke="#6B6353" stroke-width="24" stroke-linecap="round"/>
<path fill-rule="evenodd" clip-rule="evenodd" d="M183.247 406.224C156.554 405.971 135 386.044 135 361.5C135 336.955 156.554 317.029 183.247 316.776V316.774H183.604C183.657 316.774 183.709 316.773 183.761 316.773V316.774H457.245V406.226H183.247V406.224Z" fill="#8D7F64"/>
<path fill-rule="evenodd" clip-rule="evenodd" d="M310.667 643.999C287.629 643.815 269 621.5 269 594C269 566.5 287.629 544.185 310.667 544.001V544H310.954H681.245V644H310.954H310.667V643.999Z" fill="#C6B79B"/>
<circle cx="92" cy="92" r="92" transform="matrix(-1 0 0 1 580.245 252)" fill="white"/>
<circle cx="92" cy="92" r="92" transform="matrix(-1 0 0 1 781.245 460)" fill="white"/>
<path d="M1074.25 324.5C1074.25 347.42 1097.53 366 1126.25 366C1154.96 366 1178.25 347.42 1178.25 324.5C1178.25 301.58 1154.96 283 1126.25 283C1097.53 283 1074.25 301.58 1074.25 324.5Z" fill="#F3F3EE"/>
<rect width="373.463" height="83" transform="matrix(-1 0 0 1 1131.71 283)" fill="#F3F3EE"/>
<ellipse cx="91" cy="92" rx="91" ry="92" transform="matrix(-1 0 0 1 793.245 252)" fill="white"/>
<path d="M1210.81 506C1210.81 533.614 1231.9 556 1257.91 556C1283.92 556 1305 533.614 1305 506C1305 478.386 1283.92 456 1257.91 456C1231.9 456 1210.81 478.386 1210.81 506Z" fill="#E1E0CD"/>
<rect width="334.811" height="100" transform="matrix(-1 0 0 1 1263.06 456)" fill="#E1E0CD"/>
<path d="M813.245 543C813.245 595.467 855.778 638 908.245 638C939.326 638 966.92 623.074 984.252 600C996.178 584.122 1003.25 564.387 1003.25 543C1003.25 490.533 960.712 448 908.245 448C855.778 448 813.245 490.533 813.245 543Z" fill="white"/>
<g filter="url(#filter0_d_556_3)">
<circle cx="56.25" cy="56.25" r="56.25" transform="matrix(-1 0 0 1 545.245 283)" fill="white"/>
</g>
<path d="M475.133 357.288C472.541 357.288 470.237 356.616 468.221 355.272C466.205 353.896 464.621 351.944 463.469 349.416C462.317 346.856 461.741 343.784 461.741 340.2C461.741 336.616 462.317 333.56 463.469 331.032C464.621 328.472 466.205 326.52 468.221 325.176C470.237 323.8 472.541 323.112 475.133 323.112C477.725 323.112 480.029 323.8 482.045 325.176C484.061 326.52 485.645 328.472 486.797 331.032C487.981 333.56 488.573 336.616 488.573 340.2C488.573 343.784 487.981 346.856 486.797 349.416C485.645 351.944 484.061 353.896 482.045 355.272C480.029 356.616 477.725 357.288 475.133 357.288ZM475.133 354.12C477.117 354.12 478.845 353.592 480.317 352.536C481.789 351.448 482.941 349.88 483.773 347.832C484.605 345.752 485.021 343.208 485.021 340.2C485.021 337.192 484.605 334.664 483.773 332.616C482.941 330.536 481.789 328.968 480.317 327.912C478.845 326.824 477.117 326.28 475.133 326.28C473.213 326.28 471.501 326.824 469.997 327.912C468.493 328.968 467.325 330.536 466.493 332.616C465.661 334.664 465.245 337.192 465.245 340.2C465.245 343.208 465.661 345.752 466.493 347.832C467.325 349.88 468.493 351.448 469.997 352.536C471.501 353.592 473.213 354.12 475.133 354.12ZM499.051 357L513.547 324.936L514.603 326.472H493.819L495.595 324.792V332.76H492.187V323.4H516.859V325.848L502.795 357H499.051Z" fill="black"/>
<g filter="url(#filter1_d_556_3)">
<circle cx="56.25" cy="56.25" r="56.25" transform="matrix(-1 0 0 1 758.245 288)" fill="white"/>
</g>
<path d="M688.133 362.288C685.541 362.288 683.237 361.616 681.221 360.272C679.205 358.896 677.621 356.944 676.469 354.416C675.317 351.856 674.741 348.784 674.741 345.2C674.741 341.616 675.317 338.56 676.469 336.032C677.621 333.472 679.205 331.52 681.221 330.176C683.237 328.8 685.541 328.112 688.133 328.112C690.725 328.112 693.029 328.8 695.045 330.176C697.061 331.52 698.645 333.472 699.797 336.032C700.981 338.56 701.573 341.616 701.573 345.2C701.573 348.784 700.981 351.856 699.797 354.416C698.645 356.944 697.061 358.896 695.045 360.272C693.029 361.616 690.725 362.288 688.133 362.288ZM688.133 359.12C690.117 359.12 691.845 358.592 693.317 357.536C694.789 356.448 695.941 354.88 696.773 352.832C697.605 350.752 698.021 348.208 698.021 345.2C698.021 342.192 697.605 339.664 696.773 337.616C695.941 335.536 694.789 333.968 693.317 332.912C691.845 331.824 690.117 331.28 688.133 331.28C686.213 331.28 684.501 331.824 682.997 332.912C681.493 333.968 680.325 335.536 679.493 337.616C678.661 339.664 678.245 342.192 678.245 345.2C678.245 348.208 678.661 350.752 679.493 352.832C680.325 354.88 681.493 356.448 682.997 357.536C684.501 358.592 686.213 359.12 688.133 359.12ZM719.29 362.288C716.602 362.288 714.282 361.904 712.33 361.136C710.41 360.368 708.922 359.264 707.866 357.824C706.842 356.352 706.33 354.624 706.33 352.64C706.33 350.72 706.826 349.088 707.818 347.744C708.842 346.368 710.314 345.312 712.234 344.576C714.186 343.84 716.538 343.472 719.29 343.472C722.01 343.472 724.346 343.84 726.298 344.576C728.25 345.312 729.738 346.368 730.762 347.744C731.818 349.088 732.346 350.72 732.346 352.64C732.346 354.624 731.818 356.352 730.762 357.824C729.706 359.264 728.202 360.368 726.25 361.136C724.298 361.904 721.978 362.288 719.29 362.288ZM719.29 359.36C722.266 359.36 724.586 358.752 726.25 357.536C727.946 356.32 728.794 354.672 728.794 352.592C728.794 350.512 727.946 348.88 726.25 347.696C724.586 346.48 722.266 345.872 719.29 345.872C716.314 345.872 713.994 346.48 712.33 347.696C710.666 348.88 709.834 350.512 709.834 352.592C709.834 354.672 710.666 356.32 712.33 357.536C713.994 358.752 716.314 359.36 719.29 359.36ZM719.29 345.44C716.794 345.44 714.666 345.104 712.906 344.432C711.178 343.76 709.85 342.8 708.922 341.552C707.994 340.272 707.53 338.752 707.53 336.992C707.53 335.136 708.01 333.552 708.97 332.24C709.962 330.896 711.338 329.872 713.098 329.168C714.858 328.464 716.922 328.112 719.29 328.112C721.658 328.112 723.722 328.464 725.482 329.168C727.274 329.872 728.666 330.896 729.658 332.24C730.65 333.552 731.146 335.136 731.146 336.992C731.146 338.752 730.682 340.272 729.754 341.552C728.826 342.8 727.466 343.76 725.674 344.432C723.914 345.104 721.786 345.44 719.29 345.44ZM719.29 343.136C721.914 343.136 723.962 342.592 725.434 341.504C726.906 340.416 727.642 338.96 727.642 337.136C727.642 335.216 726.874 333.728 725.338 332.672C723.834 331.584 721.818 331.04 719.29 331.04C716.762 331.04 714.746 331.584 713.242 332.672C711.738 333.728 710.986 335.2 710.986 337.088C710.986 338.944 711.706 340.416 713.146 341.504C714.618 342.592 716.666 343.136 719.29 343.136Z" fill="black"/>
<g filter="url(#filter2_d_556_3)">
<circle cx="56.25" cy="56.25" r="56.25" transform="matrix(-1 0 0 1 745.245 497)" fill="white"/>
</g>
<path d="M674.133 571.288C671.541 571.288 669.237 570.616 667.221 569.272C665.205 567.896 663.621 565.944 662.469 563.416C661.317 560.856 660.741 557.784 660.741 554.2C660.741 550.616 661.317 547.56 662.469 545.032C663.621 542.472 665.205 540.52 667.221 539.176C669.237 537.8 671.541 537.112 674.133 537.112C676.725 537.112 679.029 537.8 681.045 539.176C683.061 540.52 684.645 542.472 685.797 545.032C686.981 547.56 687.573 550.616 687.573 554.2C687.573 557.784 686.981 560.856 685.797 563.416C684.645 565.944 683.061 567.896 681.045 569.272C679.029 570.616 676.725 571.288 674.133 571.288ZM674.133 568.12C676.117 568.12 677.845 567.592 679.317 566.536C680.789 565.448 681.941 563.88 682.773 561.832C683.605 559.752 684.021 557.208 684.021 554.2C684.021 551.192 683.605 548.664 682.773 546.616C681.941 544.536 680.789 542.968 679.317 541.912C677.845 540.824 676.117 540.28 674.133 540.28C672.213 540.28 670.501 540.824 668.997 541.912C667.493 542.968 666.325 544.536 665.493 546.616C664.661 548.664 664.245 551.192 664.245 554.2C664.245 557.208 664.661 559.752 665.493 561.832C666.325 563.88 667.493 565.448 668.997 566.536C670.501 567.592 672.213 568.12 674.133 568.12ZM702.986 537.112C705.962 537.112 708.474 537.784 710.522 539.128C712.57 540.44 714.122 542.344 715.178 544.84C716.234 547.336 716.762 550.36 716.762 553.912C716.762 557.688 716.106 560.872 714.794 563.464C713.514 566.056 711.722 568.008 709.418 569.32C707.114 570.632 704.442 571.288 701.402 571.288C699.898 571.288 698.458 571.144 697.082 570.856C695.738 570.568 694.522 570.104 693.434 569.464L694.826 566.68C695.69 567.256 696.682 567.672 697.802 567.928C698.954 568.152 700.138 568.264 701.354 568.264C704.97 568.264 707.85 567.112 709.994 564.808C712.17 562.504 713.258 559.064 713.258 554.488C713.258 553.752 713.21 552.872 713.114 551.848C713.05 550.824 712.874 549.8 712.586 548.776L713.786 549.688C713.466 551.352 712.778 552.776 711.722 553.96C710.698 555.112 709.418 555.992 707.882 556.6C706.378 557.208 704.698 557.512 702.842 557.512C700.634 557.512 698.666 557.096 696.938 556.264C695.242 555.432 693.914 554.264 692.954 552.76C691.994 551.256 691.514 549.48 691.514 547.432C691.514 545.32 692.01 543.496 693.002 541.96C693.994 540.424 695.354 539.24 697.082 538.408C698.842 537.544 700.81 537.112 702.986 537.112ZM703.13 540.04C701.53 540.04 700.106 540.344 698.858 540.952C697.642 541.528 696.682 542.36 695.978 543.448C695.274 544.536 694.922 545.832 694.922 547.336C694.922 549.544 695.674 551.304 697.178 552.616C698.714 553.928 700.778 554.584 703.37 554.584C705.098 554.584 706.602 554.264 707.882 553.624C709.194 552.984 710.202 552.104 710.906 550.984C711.642 549.864 712.01 548.616 712.01 547.24C712.01 545.992 711.674 544.824 711.002 543.736C710.33 542.648 709.338 541.768 708.026 541.096C706.714 540.392 705.082 540.04 703.13 540.04Z" fill="black"/>
<g filter="url(#filter3_d_556_3)">
<circle cx="56.25" cy="56.25" r="56.25" transform="matrix(-1 0 0 1 961.245 467)" fill="white"/>
</g>
<path d="M888.597 541V508.84L890.133 510.472H880.677V507.4H892.053V541H888.597ZM913.477 541.288C910.885 541.288 908.581 540.616 906.565 539.272C904.549 537.896 902.965 535.944 901.813 533.416C900.661 530.856 900.085 527.784 900.085 524.2C900.085 520.616 900.661 517.56 901.813 515.032C902.965 512.472 904.549 510.52 906.565 509.176C908.581 507.8 910.885 507.112 913.477 507.112C916.069 507.112 918.373 507.8 920.389 509.176C922.405 510.52 923.989 512.472 925.141 515.032C926.325 517.56 926.917 520.616 926.917 524.2C926.917 527.784 926.325 530.856 925.141 533.416C923.989 535.944 922.405 537.896 920.389 539.272C918.373 540.616 916.069 541.288 913.477 541.288ZM913.477 538.12C915.461 538.12 917.189 537.592 918.661 536.536C920.133 535.448 921.285 533.88 922.117 531.832C922.949 529.752 923.365 527.208 923.365 524.2C923.365 521.192 922.949 518.664 922.117 516.616C921.285 514.536 920.133 512.968 918.661 511.912C917.189 510.824 915.461 510.28 913.477 510.28C911.557 510.28 909.845 510.824 908.341 511.912C906.837 512.968 905.669 514.536 904.837 516.616C904.005 518.664 903.589 521.192 903.589 524.2C903.589 527.208 904.005 529.752 904.837 531.832C905.669 533.88 906.837 535.448 908.341 536.536C909.845 537.592 911.557 538.12 913.477 538.12Z" fill="black"/>
<path d="M599.245 138.476C600.241 202.175 555.576 238.999 501.708 238.999" stroke="#E1E0CD" stroke-width="24" stroke-linecap="square"/>
<path d="M484 28L9.53674e-07 28" stroke="#E1E0CD" stroke-width="24"/>
<path d="M488.769 28.0007C553.078 28.0007 599.245 77.2673 599.245 134.496" stroke="#E1E0CD" stroke-width="24" stroke-linecap="square"/>
<path fill-rule="evenodd" clip-rule="evenodd" d="M822.234 155.976C843.349 155.218 860.245 136.939 860.245 114.5C860.245 92.0614 843.349 73.7821 822.234 73.0244V73H820.87H545.245V156H820.87H822.234V155.976Z" fill="#6B6353"/>
<path d="M628.605 122V108H633.845C635.032 108 636.052 108.193 636.905 108.58C637.759 108.953 638.412 109.5 638.865 110.22C639.332 110.927 639.565 111.787 639.565 112.8C639.565 113.787 639.332 114.64 638.865 115.36C638.412 116.067 637.759 116.613 636.905 117C636.052 117.387 635.032 117.58 633.845 117.58H629.425L630.085 116.88V122H628.605ZM630.085 117L629.425 116.28H633.805C635.205 116.28 636.265 115.98 636.985 115.38C637.719 114.767 638.085 113.907 638.085 112.8C638.085 111.68 637.719 110.813 636.985 110.2C636.265 109.587 635.205 109.28 633.805 109.28H629.425L630.085 108.58V117ZM646.691 122.1C645.598 122.1 644.638 121.873 643.811 121.42C642.984 120.953 642.338 120.32 641.871 119.52C641.404 118.707 641.171 117.78 641.171 116.74C641.171 115.7 641.391 114.78 641.831 113.98C642.284 113.18 642.898 112.553 643.671 112.1C644.458 111.633 645.338 111.4 646.311 111.4C647.298 111.4 648.171 111.627 648.931 112.08C649.704 112.52 650.311 113.147 650.751 113.96C651.191 114.76 651.411 115.687 651.411 116.74C651.411 116.807 651.404 116.88 651.391 116.96C651.391 117.027 651.391 117.1 651.391 117.18H642.251V116.12H650.631L650.071 116.54C650.071 115.78 649.904 115.107 649.571 114.52C649.251 113.92 648.811 113.453 648.251 113.12C647.691 112.787 647.044 112.62 646.311 112.62C645.591 112.62 644.944 112.787 644.371 113.12C643.798 113.453 643.351 113.92 643.031 114.52C642.711 115.12 642.551 115.807 642.551 116.58V116.8C642.551 117.6 642.724 118.307 643.071 118.92C643.431 119.52 643.924 119.993 644.551 120.34C645.191 120.673 645.918 120.84 646.731 120.84C647.371 120.84 647.964 120.727 648.511 120.5C649.071 120.273 649.551 119.927 649.951 119.46L650.751 120.38C650.284 120.94 649.698 121.367 648.991 121.66C648.298 121.953 647.531 122.1 646.691 122.1ZM654.554 122V111.5H655.994L660.754 119.56H660.154L664.994 111.5H666.314V122H665.014V113.12L665.274 113.24L660.754 120.72H660.114L655.554 113.16L655.854 113.1V122H654.554ZM674.675 122.1C673.662 122.1 672.748 121.873 671.935 121.42C671.135 120.953 670.502 120.32 670.035 119.52C669.568 118.707 669.335 117.78 669.335 116.74C669.335 115.687 669.568 114.76 670.035 113.96C670.502 113.16 671.135 112.533 671.935 112.08C672.735 111.627 673.648 111.4 674.675 111.4C675.715 111.4 676.635 111.627 677.435 112.08C678.248 112.533 678.882 113.16 679.335 113.96C679.802 114.76 680.035 115.687 680.035 116.74C680.035 117.78 679.802 118.707 679.335 119.52C678.882 120.32 678.248 120.953 677.435 121.42C676.622 121.873 675.702 122.1 674.675 122.1ZM674.675 120.84C675.435 120.84 676.108 120.673 676.695 120.34C677.282 119.993 677.742 119.513 678.075 118.9C678.422 118.273 678.595 117.553 678.595 116.74C678.595 115.913 678.422 115.193 678.075 114.58C677.742 113.967 677.282 113.493 676.695 113.16C676.108 112.813 675.442 112.64 674.695 112.64C673.948 112.64 673.282 112.813 672.695 113.16C672.108 113.493 671.642 113.967 671.295 114.58C670.948 115.193 670.775 115.913 670.775 116.74C670.775 117.553 670.948 118.273 671.295 118.9C671.642 119.513 672.108 119.993 672.695 120.34C673.282 120.673 673.942 120.84 674.675 120.84ZM683.07 122V111.5H684.49V116.14H691.11V111.5H692.53V122H691.11V117.36H684.49V122H683.07ZM698.566 122V112.36L698.926 112.74H694.586V111.5H703.966V112.74H699.626L699.986 112.36V122H698.566ZM715.573 122.1C714.56 122.1 713.647 121.873 712.833 121.42C712.033 120.953 711.4 120.32 710.933 119.52C710.467 118.707 710.233 117.78 710.233 116.74C710.233 115.687 710.467 114.76 710.933 113.96C711.4 113.16 712.033 112.533 712.833 112.08C713.633 111.627 714.547 111.4 715.573 111.4C716.613 111.4 717.533 111.627 718.333 112.08C719.147 112.533 719.78 113.16 720.233 113.96C720.7 114.76 720.933 115.687 720.933 116.74C720.933 117.78 720.7 118.707 720.233 119.52C719.78 120.32 719.147 120.953 718.333 121.42C717.52 121.873 716.6 122.1 715.573 122.1ZM715.573 120.84C716.333 120.84 717.007 120.673 717.593 120.34C718.18 119.993 718.64 119.513 718.973 118.9C719.32 118.273 719.493 117.553 719.493 116.74C719.493 115.913 719.32 115.193 718.973 114.58C718.64 113.967 718.18 113.493 717.593 113.16C717.007 112.813 716.34 112.64 715.593 112.64C714.847 112.64 714.18 112.813 713.593 113.16C713.007 113.493 712.54 113.967 712.193 114.58C711.847 115.193 711.673 115.913 711.673 116.74C711.673 117.553 711.847 118.273 712.193 118.9C712.54 119.513 713.007 119.993 713.593 120.34C714.18 120.673 714.84 120.84 715.573 120.84ZM728.688 122.12C727.835 122.12 727.075 121.98 726.408 121.7C725.755 121.42 725.195 120.993 724.728 120.42C724.262 119.847 723.908 119.14 723.668 118.3C723.428 117.447 723.308 116.46 723.308 115.34C723.308 114.34 723.402 113.467 723.588 112.72C723.775 111.96 724.035 111.307 724.368 110.76C724.702 110.213 725.088 109.753 725.528 109.38C725.982 108.993 726.468 108.687 726.988 108.46C727.522 108.22 728.068 108.04 728.628 107.92L733.348 106.82L733.588 108.14L729.148 109.14C728.868 109.207 728.528 109.3 728.128 109.42C727.742 109.54 727.342 109.72 726.928 109.96C726.528 110.2 726.155 110.533 725.808 110.96C725.462 111.387 725.182 111.94 724.968 112.62C724.768 113.287 724.668 114.12 724.668 115.12C724.668 115.333 724.675 115.507 724.688 115.64C724.702 115.76 724.715 115.893 724.728 116.04C724.755 116.173 724.775 116.373 724.788 116.64L724.168 116.12C724.315 115.307 724.615 114.6 725.068 114C725.522 113.387 726.088 112.913 726.768 112.58C727.462 112.233 728.228 112.06 729.068 112.06C730.042 112.06 730.908 112.273 731.668 112.7C732.428 113.113 733.022 113.693 733.448 114.44C733.888 115.187 734.108 116.053 734.108 117.04C734.108 118.013 733.882 118.887 733.428 119.66C732.988 120.433 732.362 121.04 731.548 121.48C730.735 121.907 729.782 122.12 728.688 122.12ZM728.848 120.94C729.595 120.94 730.255 120.773 730.828 120.44C731.402 120.093 731.848 119.627 732.168 119.04C732.502 118.453 732.668 117.793 732.668 117.06C732.668 116.34 732.502 115.7 732.168 115.14C731.848 114.58 731.402 114.14 730.828 113.82C730.255 113.487 729.588 113.32 728.828 113.32C728.082 113.32 727.422 113.48 726.848 113.8C726.275 114.107 725.822 114.54 725.488 115.1C725.168 115.66 725.008 116.307 725.008 117.04C725.008 117.773 725.168 118.433 725.488 119.02C725.822 119.607 726.275 120.073 726.848 120.42C727.435 120.767 728.102 120.94 728.848 120.94ZM741.672 115.2C742.992 115.213 743.992 115.507 744.672 116.08C745.365 116.653 745.712 117.48 745.712 118.56C745.712 119.68 745.339 120.54 744.592 121.14C743.859 121.74 742.792 122.033 741.392 122.02L737.152 122V111.5H738.572V115.16L741.672 115.2ZM741.312 120.94C742.285 120.953 743.019 120.76 743.512 120.36C744.019 119.947 744.272 119.347 744.272 118.56C744.272 117.773 744.025 117.2 743.532 116.84C743.039 116.467 742.299 116.273 741.312 116.26L738.572 116.22V120.9L741.312 120.94ZM752.921 122.1C751.828 122.1 750.868 121.873 750.041 121.42C749.215 120.953 748.568 120.32 748.101 119.52C747.635 118.707 747.401 117.78 747.401 116.74C747.401 115.7 747.621 114.78 748.061 113.98C748.515 113.18 749.128 112.553 749.901 112.1C750.688 111.633 751.568 111.4 752.541 111.4C753.528 111.4 754.401 111.627 755.161 112.08C755.935 112.52 756.541 113.147 756.981 113.96C757.421 114.76 757.641 115.687 757.641 116.74C757.641 116.807 757.635 116.88 757.621 116.96C757.621 117.027 757.621 117.1 757.621 117.18H748.481V116.12H756.861L756.301 116.54C756.301 115.78 756.135 115.107 755.801 114.52C755.481 113.92 755.041 113.453 754.481 113.12C753.921 112.787 753.275 112.62 752.541 112.62C751.821 112.62 751.175 112.787 750.601 113.12C750.028 113.453 749.581 113.92 749.261 114.52C748.941 115.12 748.781 115.807 748.781 116.58V116.8C748.781 117.6 748.955 118.307 749.301 118.92C749.661 119.52 750.155 119.993 750.781 120.34C751.421 120.673 752.148 120.84 752.961 120.84C753.601 120.84 754.195 120.727 754.741 120.5C755.301 120.273 755.781 119.927 756.181 119.46L756.981 120.38C756.515 120.94 755.928 121.367 755.221 121.66C754.528 121.953 753.761 122.1 752.921 122.1ZM768.485 122L764.165 116.8L765.345 116.1L770.165 122H768.485ZM760.785 122V111.5H762.205V122H760.785ZM761.765 117.32V116.1H765.145V117.32H761.765ZM765.465 116.9L764.145 116.7L768.325 111.5H769.865L765.465 116.9ZM774.191 122V112.36L774.551 112.74H770.211V111.5H779.591V112.74H775.251L775.611 112.36V122H774.191ZM788.164 122V119.68L788.104 119.3V115.42C788.104 114.527 787.851 113.84 787.344 113.36C786.851 112.88 786.111 112.64 785.124 112.64C784.444 112.64 783.797 112.753 783.184 112.98C782.571 113.207 782.051 113.507 781.624 113.88L780.984 112.82C781.517 112.367 782.157 112.02 782.904 111.78C783.651 111.527 784.437 111.4 785.264 111.4C786.624 111.4 787.671 111.74 788.404 112.42C789.151 113.087 789.524 114.107 789.524 115.48V122H788.164ZM784.544 122.1C783.757 122.1 783.071 121.973 782.484 121.72C781.911 121.453 781.471 121.093 781.164 120.64C780.857 120.173 780.704 119.64 780.704 119.04C780.704 118.493 780.831 118 781.084 117.56C781.351 117.107 781.777 116.747 782.364 116.48C782.964 116.2 783.764 116.06 784.764 116.06H788.384V117.12H784.804C783.791 117.12 783.084 117.3 782.684 117.66C782.297 118.02 782.104 118.467 782.104 119C782.104 119.6 782.337 120.08 782.804 120.44C783.271 120.8 783.924 120.98 784.764 120.98C785.564 120.98 786.251 120.8 786.824 120.44C787.411 120.067 787.837 119.533 788.104 118.84L788.424 119.82C788.157 120.513 787.691 121.067 787.024 121.48C786.371 121.893 785.544 122.1 784.544 122.1Z" fill="white"/>
<circle cx="93" cy="93" r="93" transform="matrix(-1 0 0 1 588.245 42)" fill="white"/>
<g filter="url(#filter4_d_556_3)">
<circle cx="56.25" cy="56.25" r="56.25" transform="matrix(-1 0 0 1 551.245 73)" fill="white"/>
</g>
<path d="M480.133 147.288C477.541 147.288 475.237 146.616 473.221 145.272C471.205 143.896 469.621 141.944 468.469 139.416C467.317 136.856 466.741 133.784 466.741 130.2C466.741 126.616 467.317 123.56 468.469 121.032C469.621 118.472 471.205 116.52 473.221 115.176C475.237 113.8 477.541 113.112 480.133 113.112C482.725 113.112 485.029 113.8 487.045 115.176C489.061 116.52 490.645 118.472 491.797 121.032C492.981 123.56 493.573 126.616 493.573 130.2C493.573 133.784 492.981 136.856 491.797 139.416C490.645 141.944 489.061 143.896 487.045 145.272C485.029 146.616 482.725 147.288 480.133 147.288ZM480.133 144.12C482.117 144.12 483.845 143.592 485.317 142.536C486.789 141.448 487.941 139.88 488.773 137.832C489.605 135.752 490.021 133.208 490.021 130.2C490.021 127.192 489.605 124.664 488.773 122.616C487.941 120.536 486.789 118.968 485.317 117.912C483.845 116.824 482.117 116.28 480.133 116.28C478.213 116.28 476.501 116.824 474.997 117.912C473.493 118.968 472.325 120.536 471.493 122.616C470.661 124.664 470.245 127.192 470.245 130.2C470.245 133.208 470.661 135.752 471.493 137.832C472.325 139.88 473.493 141.448 474.997 142.536C476.501 143.592 478.213 144.12 480.133 144.12ZM512.298 147.288C509.322 147.288 506.81 146.632 504.762 145.32C502.714 143.976 501.162 142.056 500.106 139.56C499.05 137.032 498.522 134.008 498.522 130.488C498.522 126.68 499.162 123.496 500.442 120.936C501.754 118.344 503.562 116.392 505.866 115.08C508.17 113.768 510.842 113.112 513.882 113.112C515.386 113.112 516.826 113.256 518.202 113.544C519.578 113.832 520.794 114.296 521.85 114.936L520.458 117.72C519.594 117.144 518.602 116.744 517.482 116.52C516.362 116.264 515.178 116.136 513.93 116.136C510.314 116.136 507.418 117.288 505.242 119.592C503.098 121.896 502.026 125.336 502.026 129.912C502.026 130.616 502.058 131.496 502.122 132.552C502.218 133.576 502.41 134.6 502.698 135.624L501.498 134.712C501.85 133.048 502.538 131.64 503.562 130.488C504.586 129.304 505.866 128.408 507.402 127.8C508.938 127.192 510.618 126.888 512.442 126.888C514.682 126.888 516.65 127.304 518.346 128.136C520.042 128.968 521.37 130.136 522.33 131.64C523.29 133.144 523.77 134.92 523.77 136.968C523.77 139.048 523.274 140.872 522.282 142.44C521.29 143.976 519.914 145.176 518.154 146.04C516.426 146.872 514.474 147.288 512.298 147.288ZM512.154 144.36C513.754 144.36 515.162 144.072 516.378 143.496C517.626 142.888 518.602 142.04 519.306 140.952C520.01 139.832 520.362 138.536 520.362 137.064C520.362 134.856 519.594 133.096 518.058 131.784C516.554 130.472 514.506 129.816 511.914 129.816C510.186 129.816 508.682 130.136 507.402 130.776C506.122 131.416 505.114 132.296 504.378 133.416C503.642 134.504 503.274 135.752 503.274 137.16C503.274 138.376 503.61 139.544 504.282 140.664C504.954 141.752 505.946 142.648 507.258 143.352C508.602 144.024 510.234 144.36 512.154 144.36Z" fill="black"/>
<path d="M176.5 369.12C175.447 369.12 174.467 368.947 173.56 368.6C172.667 368.24 171.887 367.74 171.22 367.1C170.567 366.447 170.053 365.693 169.68 364.84C169.32 363.973 169.14 363.027 169.14 362C169.14 360.973 169.32 360.033 169.68 359.18C170.053 358.313 170.567 357.56 171.22 356.92C171.887 356.267 172.667 355.767 173.56 355.42C174.453 355.06 175.433 354.88 176.5 354.88C177.553 354.88 178.527 355.06 179.42 355.42C180.313 355.767 181.087 356.26 181.74 356.9C182.407 357.54 182.92 358.293 183.28 359.16C183.653 360.027 183.84 360.973 183.84 362C183.84 363.027 183.653 363.973 183.28 364.84C182.92 365.707 182.407 366.46 181.74 367.1C181.087 367.74 180.313 368.24 179.42 368.6C178.527 368.947 177.553 369.12 176.5 369.12ZM176.5 367.8C177.34 367.8 178.113 367.66 178.82 367.38C179.54 367.087 180.16 366.68 180.68 366.16C181.213 365.627 181.627 365.013 181.92 364.32C182.213 363.613 182.36 362.84 182.36 362C182.36 361.16 182.213 360.393 181.92 359.7C181.627 358.993 181.213 358.38 180.68 357.86C180.16 357.327 179.54 356.92 178.82 356.64C178.113 356.347 177.34 356.2 176.5 356.2C175.66 356.2 174.88 356.347 174.16 356.64C173.44 356.92 172.813 357.327 172.28 357.86C171.76 358.38 171.347 358.993 171.04 359.7C170.747 360.393 170.6 361.16 170.6 362C170.6 362.827 170.747 363.593 171.04 364.3C171.347 365.007 171.76 365.627 172.28 366.16C172.813 366.68 173.44 367.087 174.16 367.38C174.88 367.66 175.66 367.8 176.5 367.8ZM191.752 369.12C190.898 369.12 190.138 368.98 189.472 368.7C188.818 368.42 188.258 367.993 187.792 367.42C187.325 366.847 186.972 366.14 186.732 365.3C186.492 364.447 186.372 363.46 186.372 362.34C186.372 361.34 186.465 360.467 186.652 359.72C186.838 358.96 187.098 358.307 187.432 357.76C187.765 357.213 188.152 356.753 188.592 356.38C189.045 355.993 189.532 355.687 190.052 355.46C190.585 355.22 191.132 355.04 191.692 354.92L196.412 353.82L196.652 355.14L192.212 356.14C191.932 356.207 191.592 356.3 191.192 356.42C190.805 356.54 190.405 356.72 189.992 356.96C189.592 357.2 189.218 357.533 188.872 357.96C188.525 358.387 188.245 358.94 188.032 359.62C187.832 360.287 187.732 361.12 187.732 362.12C187.732 362.333 187.738 362.507 187.752 362.64C187.765 362.76 187.778 362.893 187.792 363.04C187.818 363.173 187.838 363.373 187.852 363.64L187.232 363.12C187.378 362.307 187.678 361.6 188.132 361C188.585 360.387 189.152 359.913 189.832 359.58C190.525 359.233 191.292 359.06 192.132 359.06C193.105 359.06 193.972 359.273 194.732 359.7C195.492 360.113 196.085 360.693 196.512 361.44C196.952 362.187 197.172 363.053 197.172 364.04C197.172 365.013 196.945 365.887 196.492 366.66C196.052 367.433 195.425 368.04 194.612 368.48C193.798 368.907 192.845 369.12 191.752 369.12ZM191.912 367.94C192.658 367.94 193.318 367.773 193.892 367.44C194.465 367.093 194.912 366.627 195.232 366.04C195.565 365.453 195.732 364.793 195.732 364.06C195.732 363.34 195.565 362.7 195.232 362.14C194.912 361.58 194.465 361.14 193.892 360.82C193.318 360.487 192.652 360.32 191.892 360.32C191.145 360.32 190.485 360.48 189.912 360.8C189.338 361.107 188.885 361.54 188.552 362.1C188.232 362.66 188.072 363.307 188.072 364.04C188.072 364.773 188.232 365.433 188.552 366.02C188.885 366.607 189.338 367.073 189.912 367.42C190.498 367.767 191.165 367.94 191.912 367.94ZM200.102 372.98C199.609 372.98 199.136 372.9 198.682 372.74C198.242 372.58 197.862 372.34 197.542 372.02L198.202 370.96C198.469 371.213 198.756 371.407 199.062 371.54C199.382 371.687 199.736 371.76 200.122 371.76C200.589 371.76 200.989 371.627 201.322 371.36C201.669 371.107 201.996 370.653 202.302 370L202.982 368.46L203.142 368.24L207.462 358.5H208.862L203.602 370.26C203.309 370.94 202.982 371.48 202.622 371.88C202.276 372.28 201.896 372.56 201.482 372.72C201.069 372.893 200.609 372.98 200.102 372.98ZM202.902 369.3L198.062 358.5H199.542L203.822 368.14L202.902 369.3ZM217.715 364.56C217.101 364.827 216.481 365.04 215.855 365.2C215.241 365.347 214.628 365.42 214.015 365.42C212.775 365.42 211.795 365.14 211.075 364.58C210.355 364.007 209.995 363.127 209.995 361.94V358.5H211.395V361.86C211.395 362.66 211.655 363.26 212.175 363.66C212.695 364.06 213.395 364.26 214.275 364.26C214.808 364.26 215.368 364.193 215.955 364.06C216.541 363.913 217.135 363.707 217.735 363.44L217.715 364.56ZM217.595 369V358.5H219.015V369H217.595ZM227.547 369.1C226.454 369.1 225.494 368.873 224.667 368.42C223.841 367.953 223.194 367.32 222.727 366.52C222.261 365.707 222.027 364.78 222.027 363.74C222.027 362.7 222.247 361.78 222.687 360.98C223.141 360.18 223.754 359.553 224.527 359.1C225.314 358.633 226.194 358.4 227.167 358.4C228.154 358.4 229.027 358.627 229.787 359.08C230.561 359.52 231.167 360.147 231.607 360.96C232.047 361.76 232.267 362.687 232.267 363.74C232.267 363.807 232.261 363.88 232.247 363.96C232.247 364.027 232.247 364.1 232.247 364.18H223.107V363.12H231.487L230.927 363.54C230.927 362.78 230.761 362.107 230.427 361.52C230.107 360.92 229.667 360.453 229.107 360.12C228.547 359.787 227.901 359.62 227.167 359.62C226.447 359.62 225.801 359.787 225.227 360.12C224.654 360.453 224.207 360.92 223.887 361.52C223.567 362.12 223.407 362.807 223.407 363.58V363.8C223.407 364.6 223.581 365.307 223.927 365.92C224.287 366.52 224.781 366.993 225.407 367.34C226.047 367.673 226.774 367.84 227.587 367.84C228.227 367.84 228.821 367.727 229.367 367.5C229.927 367.273 230.407 366.927 230.807 366.46L231.607 367.38C231.141 367.94 230.554 368.367 229.847 368.66C229.154 368.953 228.387 369.1 227.547 369.1ZM235.411 369V358.5H236.831V363.14H243.451V358.5H244.871V369H243.451V364.36H236.831V369H235.411ZM248.907 369V358.5H250.327V366.84L257.347 358.5H258.607V369H257.187V360.64L250.187 369H248.907ZM267.176 369.1C266.083 369.1 265.123 368.873 264.296 368.42C263.47 367.953 262.823 367.32 262.356 366.52C261.89 365.707 261.656 364.78 261.656 363.74C261.656 362.7 261.876 361.78 262.316 360.98C262.77 360.18 263.383 359.553 264.156 359.1C264.943 358.633 265.823 358.4 266.796 358.4C267.783 358.4 268.656 358.627 269.416 359.08C270.19 359.52 270.796 360.147 271.236 360.96C271.676 361.76 271.896 362.687 271.896 363.74C271.896 363.807 271.89 363.88 271.876 363.96C271.876 364.027 271.876 364.1 271.876 364.18H262.736V363.12H271.116L270.556 363.54C270.556 362.78 270.39 362.107 270.056 361.52C269.736 360.92 269.296 360.453 268.736 360.12C268.176 359.787 267.53 359.62 266.796 359.62C266.076 359.62 265.43 359.787 264.856 360.12C264.283 360.453 263.836 360.92 263.516 361.52C263.196 362.12 263.036 362.807 263.036 363.58V363.8C263.036 364.6 263.21 365.307 263.556 365.92C263.916 366.52 264.41 366.993 265.036 367.34C265.676 367.673 266.403 367.84 267.216 367.84C267.856 367.84 268.45 367.727 268.996 367.5C269.556 367.273 270.036 366.927 270.436 366.46L271.236 367.38C270.77 367.94 270.183 368.367 269.476 368.66C268.783 368.953 268.016 369.1 267.176 369.1ZM286.174 369.12C286.174 369.12 286.147 369.12 286.094 369.12C286.041 369.12 285.987 369.12 285.934 369.12C285.894 369.12 285.861 369.12 285.834 369.12C283.754 369.107 282.134 368.633 280.974 367.7C279.814 366.767 279.234 365.44 279.234 363.72C279.234 362.027 279.814 360.72 280.974 359.8C282.147 358.867 283.794 358.393 285.914 358.38C285.927 358.38 285.954 358.38 285.994 358.38C286.047 358.38 286.094 358.38 286.134 358.38C286.174 358.38 286.201 358.38 286.214 358.38C288.347 358.393 290.007 358.867 291.194 359.8C292.381 360.72 292.974 362.027 292.974 363.72C292.974 365.453 292.374 366.787 291.174 367.72C289.987 368.653 288.321 369.12 286.174 369.12ZM286.154 367.88C287.341 367.88 288.334 367.72 289.134 367.4C289.934 367.067 290.541 366.593 290.954 365.98C291.367 365.367 291.574 364.613 291.574 363.72C291.574 362.853 291.367 362.12 290.954 361.52C290.541 360.907 289.934 360.44 289.134 360.12C288.334 359.8 287.341 359.64 286.154 359.64C286.141 359.64 286.101 359.64 286.034 359.64C285.981 359.64 285.947 359.64 285.934 359.64C284.774 359.64 283.801 359.807 283.014 360.14C282.227 360.46 281.634 360.92 281.234 361.52C280.834 362.12 280.634 362.853 280.634 363.72C280.634 364.6 280.834 365.347 281.234 365.96C281.647 366.573 282.247 367.047 283.034 367.38C283.821 367.7 284.787 367.867 285.934 367.88C285.961 367.88 286.001 367.88 286.054 367.88C286.107 367.88 286.141 367.88 286.154 367.88ZM285.394 372.88V354.16H286.774V372.88H285.394ZM301.397 369.1C300.49 369.1 299.67 368.893 298.937 368.48C298.204 368.053 297.617 367.447 297.177 366.66C296.75 365.86 296.537 364.887 296.537 363.74C296.537 362.593 296.75 361.627 297.177 360.84C297.604 360.04 298.184 359.433 298.917 359.02C299.65 358.607 300.477 358.4 301.397 358.4C302.397 358.4 303.29 358.627 304.077 359.08C304.877 359.52 305.504 360.147 305.957 360.96C306.41 361.76 306.637 362.687 306.637 363.74C306.637 364.807 306.41 365.74 305.957 366.54C305.504 367.34 304.877 367.967 304.077 368.42C303.29 368.873 302.397 369.1 301.397 369.1ZM295.977 372.88V358.5H297.337V361.66L297.197 363.76L297.397 365.88V372.88H295.977ZM301.297 367.84C302.044 367.84 302.71 367.673 303.297 367.34C303.884 366.993 304.35 366.513 304.697 365.9C305.044 365.273 305.217 364.553 305.217 363.74C305.217 362.927 305.044 362.213 304.697 361.6C304.35 360.987 303.884 360.507 303.297 360.16C302.71 359.813 302.044 359.64 301.297 359.64C300.55 359.64 299.877 359.813 299.277 360.16C298.69 360.507 298.224 360.987 297.877 361.6C297.544 362.213 297.377 362.927 297.377 363.74C297.377 364.553 297.544 365.273 297.877 365.9C298.224 366.513 298.69 366.993 299.277 367.34C299.877 367.673 300.55 367.84 301.297 367.84ZM316.149 369V366.68L316.089 366.3V362.42C316.089 361.527 315.836 360.84 315.329 360.36C314.836 359.88 314.096 359.64 313.109 359.64C312.429 359.64 311.783 359.753 311.169 359.98C310.556 360.207 310.036 360.507 309.609 360.88L308.969 359.82C309.503 359.367 310.143 359.02 310.889 358.78C311.636 358.527 312.423 358.4 313.249 358.4C314.609 358.4 315.656 358.74 316.389 359.42C317.136 360.087 317.509 361.107 317.509 362.48V369H316.149ZM312.529 369.1C311.743 369.1 311.056 368.973 310.469 368.72C309.896 368.453 309.456 368.093 309.149 367.64C308.843 367.173 308.689 366.64 308.689 366.04C308.689 365.493 308.816 365 309.069 364.56C309.336 364.107 309.763 363.747 310.349 363.48C310.949 363.2 311.749 363.06 312.749 363.06H316.369V364.12H312.789C311.776 364.12 311.069 364.3 310.669 364.66C310.283 365.02 310.089 365.467 310.089 366C310.089 366.6 310.323 367.08 310.789 367.44C311.256 367.8 311.909 367.98 312.749 367.98C313.549 367.98 314.236 367.8 314.809 367.44C315.396 367.067 315.823 366.533 316.089 365.84L316.409 366.82C316.143 367.513 315.676 368.067 315.009 368.48C314.356 368.893 313.529 369.1 312.529 369.1ZM321.29 369V358.5H322.71V363.14H329.33V358.5H330.75V369H329.33V364.36H322.71V369H321.29ZM341.426 364.56C340.812 364.827 340.192 365.04 339.566 365.2C338.952 365.347 338.339 365.42 337.726 365.42C336.486 365.42 335.506 365.14 334.786 364.58C334.066 364.007 333.706 363.127 333.706 361.94V358.5H335.106V361.86C335.106 362.66 335.366 363.26 335.886 363.66C336.406 364.06 337.106 364.26 337.986 364.26C338.519 364.26 339.079 364.193 339.666 364.06C340.252 363.913 340.846 363.707 341.446 363.44L341.426 364.56ZM341.306 369V358.5H342.726V369H341.306ZM353.278 369V366.68L353.218 366.3V362.42C353.218 361.527 352.965 360.84 352.458 360.36C351.965 359.88 351.225 359.64 350.238 359.64C349.558 359.64 348.912 359.753 348.298 359.98C347.685 360.207 347.165 360.507 346.738 360.88L346.098 359.82C346.632 359.367 347.272 359.02 348.018 358.78C348.765 358.527 349.552 358.4 350.378 358.4C351.738 358.4 352.785 358.74 353.518 359.42C354.265 360.087 354.638 361.107 354.638 362.48V369H353.278ZM349.658 369.1C348.872 369.1 348.185 368.973 347.598 368.72C347.025 368.453 346.585 368.093 346.278 367.64C345.972 367.173 345.818 366.64 345.818 366.04C345.818 365.493 345.945 365 346.198 364.56C346.465 364.107 346.892 363.747 347.478 363.48C348.078 363.2 348.878 363.06 349.878 363.06H353.498V364.12H349.918C348.905 364.12 348.198 364.3 347.798 364.66C347.412 365.02 347.218 365.467 347.218 366C347.218 366.6 347.452 367.08 347.918 367.44C348.385 367.8 349.038 367.98 349.878 367.98C350.678 367.98 351.365 367.8 351.938 367.44C352.525 367.067 352.952 366.533 353.218 365.84L353.538 366.82C353.272 367.513 352.805 368.067 352.138 368.48C351.485 368.893 350.658 369.1 349.658 369.1ZM358.418 369V358.5H359.838V366.84L366.858 358.5H368.118V369H366.698V360.64L359.698 369H358.418ZM363.178 356.98C362.298 356.98 361.585 356.76 361.038 356.32C360.505 355.867 360.225 355.22 360.198 354.38H361.218C361.232 354.913 361.418 355.333 361.778 355.64C362.138 355.947 362.605 356.1 363.178 356.1C363.752 356.1 364.218 355.947 364.578 355.64C364.952 355.333 365.145 354.913 365.158 354.38H366.178C366.165 355.22 365.885 355.867 365.338 356.32C364.792 356.76 364.072 356.98 363.178 356.98ZM374.793 369.12C375.66 369.12 376.44 368.987 377.133 368.72C377.84 368.453 378.4 368.087 378.813 367.62C379.226 367.14 379.433 366.587 379.433 365.96C379.433 365.16 379.093 364.527 378.413 364.06C377.746 363.593 376.813 363.36 375.613 363.36L375.553 363.74C376.233 363.74 376.84 363.633 377.373 363.42C377.906 363.207 378.333 362.907 378.653 362.52C378.973 362.133 379.133 361.68 379.133 361.16C379.133 360.573 378.933 360.073 378.533 359.66C378.133 359.233 377.593 358.907 376.913 358.68C376.246 358.453 375.493 358.353 374.653 358.38C374.04 358.38 373.426 358.467 372.813 358.64C372.213 358.8 371.606 359.04 370.993 359.36L371.393 360.46C371.94 360.18 372.493 359.973 373.053 359.84C373.613 359.693 374.153 359.613 374.673 359.6C375.246 359.6 375.76 359.667 376.213 359.8C376.666 359.933 377.02 360.133 377.273 360.4C377.54 360.667 377.673 360.987 377.673 361.36C377.673 361.707 377.56 362.007 377.333 362.26C377.12 362.513 376.813 362.707 376.413 362.84C376.013 362.973 375.553 363.04 375.033 363.04H373.333V364.08H375.133C376.013 364.08 376.706 364.24 377.213 364.56C377.72 364.867 377.973 365.3 377.973 365.86C377.973 366.247 377.84 366.593 377.573 366.9C377.306 367.207 376.933 367.447 376.453 367.62C375.973 367.793 375.406 367.887 374.753 367.9C374.1 367.9 373.44 367.807 372.773 367.62C372.106 367.42 371.52 367.133 371.013 366.76L370.553 367.82C371.126 368.26 371.786 368.587 372.533 368.8C373.28 369.013 374.033 369.12 374.793 369.12ZM382.657 369V358.5H384.077V366.84L391.097 358.5H392.357V369H390.937V360.64L383.937 369H382.657Z" fill="white"/>
<path d="M824.36 332V318H836.14V332H834.68V318.88L835.06 319.28H825.44L825.82 318.88V332H824.36ZM844.844 332.1C843.831 332.1 842.917 331.873 842.104 331.42C841.304 330.953 840.671 330.32 840.204 329.52C839.737 328.707 839.504 327.78 839.504 326.74C839.504 325.687 839.737 324.76 840.204 323.96C840.671 323.16 841.304 322.533 842.104 322.08C842.904 321.627 843.817 321.4 844.844 321.4C845.884 321.4 846.804 321.627 847.604 322.08C848.417 322.533 849.051 323.16 849.504 323.96C849.971 324.76 850.204 325.687 850.204 326.74C850.204 327.78 849.971 328.707 849.504 329.52C849.051 330.32 848.417 330.953 847.604 331.42C846.791 331.873 845.871 332.1 844.844 332.1ZM844.844 330.84C845.604 330.84 846.277 330.673 846.864 330.34C847.451 329.993 847.911 329.513 848.244 328.9C848.591 328.273 848.764 327.553 848.764 326.74C848.764 325.913 848.591 325.193 848.244 324.58C847.911 323.967 847.451 323.493 846.864 323.16C846.277 322.813 845.611 322.64 844.864 322.64C844.117 322.64 843.451 322.813 842.864 323.16C842.277 323.493 841.811 323.967 841.464 324.58C841.117 325.193 840.944 325.913 840.944 326.74C840.944 327.553 841.117 328.273 841.464 328.9C841.811 329.513 842.277 329.993 842.864 330.34C843.451 330.673 844.111 330.84 844.844 330.84ZM860.38 331.32V322.74H855.32L855.2 325.08C855.173 325.787 855.127 326.48 855.06 327.16C855.007 327.84 854.907 328.467 854.76 329.04C854.627 329.6 854.433 330.06 854.18 330.42C853.927 330.767 853.6 330.967 853.2 331.02L851.78 330.76C852.193 330.773 852.533 330.627 852.8 330.32C853.067 330 853.273 329.567 853.42 329.02C853.567 328.473 853.673 327.853 853.74 327.16C853.807 326.453 853.86 325.733 853.9 325L854.04 321.5H861.8V331.32H860.38ZM851.34 334.54V330.76H863.44V334.54H862.1V332H852.68V334.54H851.34ZM873.908 332L869.588 326.8L870.768 326.1L875.588 332H873.908ZM866.208 332V321.5H867.628V332H866.208ZM867.188 327.32V326.1H870.568V327.32H867.188ZM870.888 326.9L869.568 326.7L873.748 321.5H875.288L870.888 326.9ZM875.909 331.98L876.009 330.76C876.102 330.773 876.189 330.793 876.269 330.82C876.362 330.833 876.442 330.84 876.509 330.84C876.935 330.84 877.275 330.68 877.529 330.36C877.795 330.04 877.995 329.613 878.129 329.08C878.262 328.547 878.355 327.947 878.409 327.28C878.462 326.6 878.509 325.92 878.549 325.24L878.729 321.5H886.429V332H885.009V322.32L885.369 322.74H879.649L879.989 322.3L879.829 325.34C879.789 326.247 879.715 327.113 879.609 327.94C879.515 328.767 879.362 329.493 879.149 330.12C878.949 330.747 878.669 331.24 878.309 331.6C877.949 331.947 877.489 332.12 876.929 332.12C876.769 332.12 876.602 332.107 876.429 332.08C876.269 332.053 876.095 332.02 875.909 331.98ZM890.465 332V321.5H891.885V326.02H895.085V327.32H891.885V332H890.465ZM899.505 332.1C898.505 332.1 897.605 331.873 896.805 331.42C896.019 330.953 895.399 330.32 894.945 329.52C894.492 328.707 894.265 327.78 894.265 326.74C894.265 325.687 894.492 324.76 894.945 323.96C895.399 323.16 896.019 322.533 896.805 322.08C897.605 321.627 898.505 321.4 899.505 321.4C900.505 321.4 901.399 321.627 902.185 322.08C902.972 322.533 903.592 323.16 904.045 323.96C904.499 324.76 904.725 325.687 904.725 326.74C904.725 327.78 904.499 328.707 904.045 329.52C903.592 330.32 902.972 330.953 902.185 331.42C901.399 331.873 900.505 332.1 899.505 332.1ZM899.505 330.86C900.239 330.86 900.892 330.687 901.465 330.34C902.039 329.993 902.492 329.513 902.825 328.9C903.159 328.273 903.325 327.553 903.325 326.74C903.325 325.913 903.159 325.193 902.825 324.58C902.492 323.967 902.039 323.493 901.465 323.16C900.892 322.813 900.239 322.64 899.505 322.64C898.785 322.64 898.132 322.813 897.545 323.16C896.972 323.493 896.519 323.967 896.185 324.58C895.852 325.193 895.685 325.913 895.685 326.74C895.685 327.553 895.852 328.273 896.185 328.9C896.519 329.513 896.972 329.993 897.545 330.34C898.132 330.687 898.785 330.86 899.505 330.86ZM914.41 327.56C913.797 327.827 913.177 328.04 912.55 328.2C911.937 328.347 911.323 328.42 910.71 328.42C909.47 328.42 908.49 328.14 907.77 327.58C907.05 327.007 906.69 326.127 906.69 324.94V321.5H908.09V324.86C908.09 325.66 908.35 326.26 908.87 326.66C909.39 327.06 910.09 327.26 910.97 327.26C911.503 327.26 912.063 327.193 912.65 327.06C913.237 326.913 913.83 326.707 914.43 326.44L914.41 327.56ZM914.29 332V321.5H915.71V332H914.29ZM924.243 332.1C923.149 332.1 922.189 331.873 921.363 331.42C920.536 330.953 919.889 330.32 919.423 329.52C918.956 328.707 918.723 327.78 918.723 326.74C918.723 325.7 918.943 324.78 919.383 323.98C919.836 323.18 920.449 322.553 921.223 322.1C922.009 321.633 922.889 321.4 923.863 321.4C924.849 321.4 925.723 321.627 926.483 322.08C927.256 322.52 927.863 323.147 928.303 323.96C928.743 324.76 928.963 325.687 928.963 326.74C928.963 326.807 928.956 326.88 928.943 326.96C928.943 327.027 928.943 327.1 928.943 327.18H919.803V326.12H928.183L927.623 326.54C927.623 325.78 927.456 325.107 927.123 324.52C926.803 323.92 926.363 323.453 925.803 323.12C925.243 322.787 924.596 322.62 923.863 322.62C923.143 322.62 922.496 322.787 921.923 323.12C921.349 323.453 920.903 323.92 920.583 324.52C920.263 325.12 920.103 325.807 920.103 326.58V326.8C920.103 327.6 920.276 328.307 920.623 328.92C920.983 329.52 921.476 329.993 922.103 330.34C922.743 330.673 923.469 330.84 924.283 330.84C924.923 330.84 925.516 330.727 926.063 330.5C926.623 330.273 927.103 329.927 927.503 329.46L928.303 330.38C927.836 330.94 927.249 331.367 926.543 331.66C925.849 331.953 925.083 332.1 924.243 332.1ZM932.106 332V321.5H933.526V326.14H940.146V321.5H941.566V332H940.146V327.36H933.526V332H932.106ZM945.602 332V321.5H947.022V329.84L954.042 321.5H955.302V332H953.882V323.64L946.882 332H945.602ZM963.872 332.1C962.778 332.1 961.818 331.873 960.992 331.42C960.165 330.953 959.518 330.32 959.052 329.52C958.585 328.707 958.352 327.78 958.352 326.74C958.352 325.7 958.572 324.78 959.012 323.98C959.465 323.18 960.078 322.553 960.852 322.1C961.638 321.633 962.518 321.4 963.492 321.4C964.478 321.4 965.352 321.627 966.112 322.08C966.885 322.52 967.492 323.147 967.932 323.96C968.372 324.76 968.592 325.687 968.592 326.74C968.592 326.807 968.585 326.88 968.572 326.96C968.572 327.027 968.572 327.1 968.572 327.18H959.432V326.12H967.812L967.252 326.54C967.252 325.78 967.085 325.107 966.752 324.52C966.432 323.92 965.992 323.453 965.432 323.12C964.872 322.787 964.225 322.62 963.492 322.62C962.772 322.62 962.125 322.787 961.552 323.12C960.978 323.453 960.532 323.92 960.212 324.52C959.892 325.12 959.732 325.807 959.732 326.58V326.8C959.732 327.6 959.905 328.307 960.252 328.92C960.612 329.52 961.105 329.993 961.732 330.34C962.372 330.673 963.098 330.84 963.912 330.84C964.552 330.84 965.145 330.727 965.692 330.5C966.252 330.273 966.732 329.927 967.132 329.46L967.932 330.38C967.465 330.94 966.878 331.367 966.172 331.66C965.478 331.953 964.712 332.1 963.872 332.1ZM984.669 332L980.349 326.8L981.529 326.1L986.349 332H984.669ZM976.969 332V321.5H978.389V332H976.969ZM977.949 327.32V326.1H981.329V327.32H977.949ZM981.649 326.9L980.329 326.7L984.509 321.5H986.049L981.649 326.9ZM1000.16 332.12C999.111 332.12 998.138 331.947 997.245 331.6C996.351 331.24 995.578 330.74 994.925 330.1C994.271 329.46 993.758 328.707 993.385 327.84C993.025 326.973 992.845 326.027 992.845 325C992.845 323.973 993.025 323.027 993.385 322.16C993.758 321.293 994.271 320.54 994.925 319.9C995.591 319.26 996.371 318.767 997.265 318.42C998.158 318.06 999.131 317.88 1000.18 317.88C1001.2 317.88 1002.15 318.053 1003.04 318.4C1003.94 318.733 1004.69 319.24 1005.3 319.92L1004.36 320.86C1003.79 320.273 1003.16 319.853 1002.46 319.6C1001.77 319.333 1001.02 319.2 1000.22 319.2C999.385 319.2 998.605 319.347 997.885 319.64C997.165 319.92 996.538 320.327 996.005 320.86C995.471 321.38 995.051 321.993 994.745 322.7C994.451 323.393 994.305 324.16 994.305 325C994.305 325.84 994.451 326.613 994.745 327.32C995.051 328.013 995.471 328.627 996.005 329.16C996.538 329.68 997.165 330.087 997.885 330.38C998.605 330.66 999.385 330.8 1000.22 330.8C1001.02 330.8 1001.77 330.667 1002.46 330.4C1003.16 330.133 1003.79 329.707 1004.36 329.12L1005.3 330.06C1004.69 330.74 1003.94 331.253 1003.04 331.6C1002.15 331.947 1001.19 332.12 1000.16 332.12ZM1008.46 332V318H1013.7C1014.89 318 1015.91 318.193 1016.76 318.58C1017.61 318.953 1018.27 319.5 1018.72 320.22C1019.19 320.927 1019.42 321.787 1019.42 322.8C1019.42 323.787 1019.19 324.64 1018.72 325.36C1018.27 326.067 1017.61 326.613 1016.76 327C1015.91 327.373 1014.89 327.56 1013.7 327.56H1009.28L1009.94 326.88V332H1008.46ZM1018.02 332L1014.42 326.92H1016.02L1019.64 332H1018.02ZM1009.94 327L1009.28 326.3H1013.66C1015.06 326.3 1016.12 325.993 1016.84 325.38C1017.57 324.767 1017.94 323.907 1017.94 322.8C1017.94 321.68 1017.57 320.813 1016.84 320.2C1016.12 319.587 1015.06 319.28 1013.66 319.28H1009.28L1009.94 318.58V327ZM1022.91 332V318H1024.13L1030.53 328.92H1029.89L1036.23 318H1037.45V332H1036.03V320.22H1036.37L1030.53 330.22H1029.83L1023.95 320.22H1024.33V332H1022.91ZM1051.39 332.1C1050.35 332.1 1049.42 331.873 1048.59 331.42C1047.78 330.953 1047.14 330.32 1046.67 329.52C1046.2 328.707 1045.97 327.78 1045.97 326.74C1045.97 325.687 1046.2 324.76 1046.67 323.96C1047.14 323.16 1047.78 322.533 1048.59 322.08C1049.42 321.627 1050.35 321.4 1051.39 321.4C1052.28 321.4 1053.09 321.573 1053.81 321.92C1054.53 322.267 1055.1 322.787 1055.51 323.48L1054.45 324.2C1054.09 323.667 1053.64 323.273 1053.11 323.02C1052.58 322.767 1052 322.64 1051.37 322.64C1050.62 322.64 1049.95 322.813 1049.35 323.16C1048.75 323.493 1048.28 323.967 1047.93 324.58C1047.58 325.193 1047.41 325.913 1047.41 326.74C1047.41 327.567 1047.58 328.287 1047.93 328.9C1048.28 329.513 1048.75 329.993 1049.35 330.34C1049.95 330.673 1050.62 330.84 1051.37 330.84C1052 330.84 1052.58 330.713 1053.11 330.46C1053.64 330.207 1054.09 329.82 1054.45 329.3L1055.51 330.02C1055.1 330.7 1054.53 331.22 1053.81 331.58C1053.09 331.927 1052.28 332.1 1051.39 332.1ZM1058.26 332V321.5H1059.68V329.84L1066.7 321.5H1067.96V332H1066.54V323.64L1059.54 332H1058.26ZM1076.43 332.1C1075.39 332.1 1074.45 331.873 1073.63 331.42C1072.81 330.953 1072.17 330.32 1071.71 329.52C1071.24 328.707 1071.01 327.78 1071.01 326.74C1071.01 325.687 1071.24 324.76 1071.71 323.96C1072.17 323.16 1072.81 322.533 1073.63 322.08C1074.45 321.627 1075.39 321.4 1076.43 321.4C1077.32 321.4 1078.13 321.573 1078.85 321.92C1079.57 322.267 1080.13 322.787 1080.55 323.48L1079.49 324.2C1079.13 323.667 1078.68 323.273 1078.15 323.02C1077.61 322.767 1077.03 322.64 1076.41 322.64C1075.66 322.64 1074.99 322.813 1074.39 323.16C1073.79 323.493 1073.31 323.967 1072.97 324.58C1072.62 325.193 1072.45 325.913 1072.45 326.74C1072.45 327.567 1072.62 328.287 1072.97 328.9C1073.31 329.513 1073.79 329.993 1074.39 330.34C1074.99 330.673 1075.66 330.84 1076.41 330.84C1077.03 330.84 1077.61 330.713 1078.15 330.46C1078.68 330.207 1079.13 329.82 1079.49 329.3L1080.55 330.02C1080.13 330.7 1079.57 331.22 1078.85 331.58C1078.13 331.927 1077.32 332.1 1076.43 332.1ZM1085.1 332V322.36L1085.46 322.74H1081.12V321.5H1090.5V322.74H1086.16L1086.52 322.36V332H1085.1ZM1096.57 332.1C1095.47 332.1 1094.51 331.873 1093.69 331.42C1092.86 330.953 1092.21 330.32 1091.75 329.52C1091.28 328.707 1091.05 327.78 1091.05 326.74C1091.05 325.7 1091.27 324.78 1091.71 323.98C1092.16 323.18 1092.77 322.553 1093.55 322.1C1094.33 321.633 1095.21 321.4 1096.19 321.4C1097.17 321.4 1098.05 321.627 1098.81 322.08C1099.58 322.52 1100.19 323.147 1100.63 323.96C1101.07 324.76 1101.29 325.687 1101.29 326.74C1101.29 326.807 1101.28 326.88 1101.27 326.96C1101.27 327.027 1101.27 327.1 1101.27 327.18H1092.13V326.12H1100.51L1099.95 326.54C1099.95 325.78 1099.78 325.107 1099.45 324.52C1099.13 323.92 1098.69 323.453 1098.13 323.12C1097.57 322.787 1096.92 322.62 1096.19 322.62C1095.47 322.62 1094.82 322.787 1094.25 323.12C1093.67 323.453 1093.23 323.92 1092.91 324.52C1092.59 325.12 1092.43 325.807 1092.43 326.58V326.8C1092.43 327.6 1092.6 328.307 1092.95 328.92C1093.31 329.52 1093.8 329.993 1094.43 330.34C1095.07 330.673 1095.79 330.84 1096.61 330.84C1097.25 330.84 1097.84 330.727 1098.39 330.5C1098.95 330.273 1099.43 329.927 1099.83 329.46L1100.63 330.38C1100.16 330.94 1099.57 331.367 1098.87 331.66C1098.17 331.953 1097.41 332.1 1096.57 332.1ZM1104.43 332V321.5H1105.87L1110.63 329.56H1110.03L1114.87 321.5H1116.19V332H1114.89V323.12L1115.15 323.24L1110.63 330.72H1109.99L1105.43 323.16L1105.73 323.1V332H1104.43ZM1124.73 332.1C1123.64 332.1 1122.68 331.873 1121.85 331.42C1121.02 330.953 1120.38 330.32 1119.91 329.52C1119.44 328.707 1119.21 327.78 1119.21 326.74C1119.21 325.7 1119.43 324.78 1119.87 323.98C1120.32 323.18 1120.94 322.553 1121.71 322.1C1122.5 321.633 1123.38 321.4 1124.35 321.4C1125.34 321.4 1126.21 321.627 1126.97 322.08C1127.74 322.52 1128.35 323.147 1128.79 323.96C1129.23 324.76 1129.45 325.687 1129.45 326.74C1129.45 326.807 1129.44 326.88 1129.43 326.96C1129.43 327.027 1129.43 327.1 1129.43 327.18H1120.29V326.12H1128.67L1128.11 326.54C1128.11 325.78 1127.94 325.107 1127.61 324.52C1127.29 323.92 1126.85 323.453 1126.29 323.12C1125.73 322.787 1125.08 322.62 1124.35 322.62C1123.63 322.62 1122.98 322.787 1122.41 323.12C1121.84 323.453 1121.39 323.92 1121.07 324.52C1120.75 325.12 1120.59 325.807 1120.59 326.58V326.8C1120.59 327.6 1120.76 328.307 1121.11 328.92C1121.47 329.52 1121.96 329.993 1122.59 330.34C1123.23 330.673 1123.96 330.84 1124.77 330.84C1125.41 330.84 1126 330.727 1126.55 330.5C1127.11 330.273 1127.59 329.927 1127.99 329.46L1128.79 330.38C1128.32 330.94 1127.74 331.367 1127.03 331.66C1126.34 331.953 1125.57 332.1 1124.73 332.1Z" fill="black"/>
<path d="M337.36 601V587H338.58L344.98 597.92H344.34L350.68 587H351.9V601H350.48V589.22H350.82L344.98 599.22H344.28L338.4 589.22H338.78V601H337.36ZM362.798 601V598.68L362.738 598.3V594.42C362.738 593.527 362.484 592.84 361.978 592.36C361.484 591.88 360.744 591.64 359.758 591.64C359.078 591.64 358.431 591.753 357.818 591.98C357.204 592.207 356.684 592.507 356.258 592.88L355.618 591.82C356.151 591.367 356.791 591.02 357.538 590.78C358.284 590.527 359.071 590.4 359.898 590.4C361.258 590.4 362.304 590.74 363.038 591.42C363.784 592.087 364.158 593.107 364.158 594.48V601H362.798ZM359.178 601.1C358.391 601.1 357.704 600.973 357.118 600.72C356.544 600.453 356.104 600.093 355.798 599.64C355.491 599.173 355.338 598.64 355.338 598.04C355.338 597.493 355.464 597 355.718 596.56C355.984 596.107 356.411 595.747 356.998 595.48C357.598 595.2 358.398 595.06 359.398 595.06H363.018V596.12H359.438C358.424 596.12 357.718 596.3 357.318 596.66C356.931 597.02 356.738 597.467 356.738 598C356.738 598.6 356.971 599.08 357.438 599.44C357.904 599.8 358.558 599.98 359.398 599.98C360.198 599.98 360.884 599.8 361.458 599.44C362.044 599.067 362.471 598.533 362.738 597.84L363.058 598.82C362.791 599.513 362.324 600.067 361.658 600.48C361.004 600.893 360.178 601.1 359.178 601.1ZM373.358 601.1C372.451 601.1 371.631 600.893 370.898 600.48C370.165 600.053 369.578 599.447 369.138 598.66C368.711 597.86 368.498 596.887 368.498 595.74C368.498 594.593 368.711 593.627 369.138 592.84C369.565 592.04 370.145 591.433 370.878 591.02C371.611 590.607 372.438 590.4 373.358 590.4C374.358 590.4 375.251 590.627 376.038 591.08C376.838 591.52 377.465 592.147 377.918 592.96C378.371 593.76 378.598 594.687 378.598 595.74C378.598 596.807 378.371 597.74 377.918 598.54C377.465 599.34 376.838 599.967 376.038 600.42C375.251 600.873 374.358 601.1 373.358 601.1ZM367.938 604.88V590.5H369.298V593.66L369.158 595.76L369.358 597.88V604.88H367.938ZM373.258 599.84C374.005 599.84 374.671 599.673 375.258 599.34C375.845 598.993 376.311 598.513 376.658 597.9C377.005 597.273 377.178 596.553 377.178 595.74C377.178 594.927 377.005 594.213 376.658 593.6C376.311 592.987 375.845 592.507 375.258 592.16C374.671 591.813 374.005 591.64 373.258 591.64C372.511 591.64 371.838 591.813 371.238 592.16C370.651 592.507 370.185 592.987 369.838 593.6C369.505 594.213 369.338 594.927 369.338 595.74C369.338 596.553 369.505 597.273 369.838 597.9C370.185 598.513 370.651 598.993 371.238 599.34C371.838 599.673 372.511 599.84 373.258 599.84ZM389.349 601L385.029 595.8L386.209 595.1L391.029 601H389.349ZM381.649 601V590.5H383.069V601H381.649ZM382.629 596.32V595.1H386.009V596.32H382.629ZM386.329 595.9L385.009 595.7L389.189 590.5H390.729L386.329 595.9ZM397.399 601.1C396.306 601.1 395.346 600.873 394.519 600.42C393.692 599.953 393.046 599.32 392.579 598.52C392.112 597.707 391.879 596.78 391.879 595.74C391.879 594.7 392.099 593.78 392.539 592.98C392.992 592.18 393.606 591.553 394.379 591.1C395.166 590.633 396.046 590.4 397.019 590.4C398.006 590.4 398.879 590.627 399.639 591.08C400.412 591.52 401.019 592.147 401.459 592.96C401.899 593.76 402.119 594.687 402.119 595.74C402.119 595.807 402.112 595.88 402.099 595.96C402.099 596.027 402.099 596.1 402.099 596.18H392.959V595.12H401.339L400.779 595.54C400.779 594.78 400.612 594.107 400.279 593.52C399.959 592.92 399.519 592.453 398.959 592.12C398.399 591.787 397.752 591.62 397.019 591.62C396.299 591.62 395.652 591.787 395.079 592.12C394.506 592.453 394.059 592.92 393.739 593.52C393.419 594.12 393.259 594.807 393.259 595.58V595.8C393.259 596.6 393.432 597.307 393.779 597.92C394.139 598.52 394.632 598.993 395.259 599.34C395.899 599.673 396.626 599.84 397.439 599.84C398.079 599.84 398.672 599.727 399.219 599.5C399.779 599.273 400.259 598.927 400.659 598.46L401.459 599.38C400.992 599.94 400.406 600.367 399.699 600.66C399.006 600.953 398.239 601.1 397.399 601.1ZM406.793 601V591.36L407.153 591.74H402.813V590.5H412.193V591.74H407.853L408.213 591.36V601H406.793ZM414.247 601V590.5H415.667V598.84L422.687 590.5H423.947V601H422.527V592.64L415.527 601H414.247ZM428.016 601V590.5H429.436V595.14H436.056V590.5H437.476V601H436.056V596.36H429.436V601H428.016ZM441.512 601V590.5H448.952V591.74H442.572L442.932 591.38V601H441.512ZM456.239 601V590.5H457.659V598.84L464.679 590.5H465.939V601H464.519V592.64L457.519 601H456.239ZM475.243 601V590.5H484.683V601H483.263V591.36L483.623 591.74H476.303L476.663 591.36V601H475.243ZM494.139 601.1C493.233 601.1 492.413 600.893 491.679 600.48C490.946 600.053 490.359 599.447 489.919 598.66C489.493 597.86 489.279 596.887 489.279 595.74C489.279 594.593 489.493 593.627 489.919 592.84C490.346 592.04 490.926 591.433 491.659 591.02C492.393 590.607 493.219 590.4 494.139 590.4C495.139 590.4 496.033 590.627 496.819 591.08C497.619 591.52 498.246 592.147 498.699 592.96C499.153 593.76 499.379 594.687 499.379 595.74C499.379 596.807 499.153 597.74 498.699 598.54C498.246 599.34 497.619 599.967 496.819 600.42C496.033 600.873 495.139 601.1 494.139 601.1ZM488.719 604.88V590.5H490.079V593.66L489.939 595.76L490.139 597.88V604.88H488.719ZM494.039 599.84C494.786 599.84 495.453 599.673 496.039 599.34C496.626 598.993 497.093 598.513 497.439 597.9C497.786 597.273 497.959 596.553 497.959 595.74C497.959 594.927 497.786 594.213 497.439 593.6C497.093 592.987 496.626 592.507 496.039 592.16C495.453 591.813 494.786 591.64 494.039 591.64C493.293 591.64 492.619 591.813 492.019 592.16C491.433 592.507 490.966 592.987 490.619 593.6C490.286 594.213 490.119 594.927 490.119 595.74C490.119 596.553 490.286 597.273 490.619 597.9C490.966 598.513 491.433 598.993 492.019 599.34C492.619 599.673 493.293 599.84 494.039 599.84ZM506.75 601.1C505.737 601.1 504.823 600.873 504.01 600.42C503.21 599.953 502.577 599.32 502.11 598.52C501.643 597.707 501.41 596.78 501.41 595.74C501.41 594.687 501.643 593.76 502.11 592.96C502.577 592.16 503.21 591.533 504.01 591.08C504.81 590.627 505.723 590.4 506.75 590.4C507.79 590.4 508.71 590.627 509.51 591.08C510.323 591.533 510.957 592.16 511.41 592.96C511.877 593.76 512.11 594.687 512.11 595.74C512.11 596.78 511.877 597.707 511.41 598.52C510.957 599.32 510.323 599.953 509.51 600.42C508.697 600.873 507.777 601.1 506.75 601.1ZM506.75 599.84C507.51 599.84 508.183 599.673 508.77 599.34C509.357 598.993 509.817 598.513 510.15 597.9C510.497 597.273 510.67 596.553 510.67 595.74C510.67 594.913 510.497 594.193 510.15 593.58C509.817 592.967 509.357 592.493 508.77 592.16C508.183 591.813 507.517 591.64 506.77 591.64C506.023 591.64 505.357 591.813 504.77 592.16C504.183 592.493 503.717 592.967 503.37 593.58C503.023 594.193 502.85 594.913 502.85 595.74C502.85 596.553 503.023 597.273 503.37 597.9C503.717 598.513 504.183 598.993 504.77 599.34C505.357 599.673 506.017 599.84 506.75 599.84ZM522.286 600.32V591.74H517.226L517.106 594.08C517.08 594.787 517.033 595.48 516.966 596.16C516.913 596.84 516.813 597.467 516.666 598.04C516.533 598.6 516.34 599.06 516.086 599.42C515.833 599.767 515.506 599.967 515.106 600.02L513.686 599.76C514.1 599.773 514.44 599.627 514.706 599.32C514.973 599 515.18 598.567 515.326 598.02C515.473 597.473 515.58 596.853 515.646 596.16C515.713 595.453 515.766 594.733 515.806 594L515.946 590.5H523.706V600.32H522.286ZM513.246 603.54V599.76H525.346V603.54H524.006V601H514.586V603.54H513.246ZM534.634 601V598.68L534.574 598.3V594.42C534.574 593.527 534.32 592.84 533.814 592.36C533.32 591.88 532.58 591.64 531.594 591.64C530.914 591.64 530.267 591.753 529.654 591.98C529.04 592.207 528.52 592.507 528.094 592.88L527.454 591.82C527.987 591.367 528.627 591.02 529.374 590.78C530.12 590.527 530.907 590.4 531.734 590.4C533.094 590.4 534.14 590.74 534.874 591.42C535.62 592.087 535.994 593.107 535.994 594.48V601H534.634ZM531.014 601.1C530.227 601.1 529.54 600.973 528.954 600.72C528.38 600.453 527.94 600.093 527.634 599.64C527.327 599.173 527.174 598.64 527.174 598.04C527.174 597.493 527.3 597 527.554 596.56C527.82 596.107 528.247 595.747 528.834 595.48C529.434 595.2 530.234 595.06 531.234 595.06H534.854V596.12H531.274C530.26 596.12 529.554 596.3 529.154 596.66C528.767 597.02 528.574 597.467 528.574 598C528.574 598.6 528.807 599.08 529.274 599.44C529.74 599.8 530.394 599.98 531.234 599.98C532.034 599.98 532.72 599.8 533.294 599.44C533.88 599.067 534.307 598.533 534.574 597.84L534.894 598.82C534.627 599.513 534.16 600.067 533.494 600.48C532.84 600.893 532.014 601.1 531.014 601.1ZM552.234 601L548.634 595.8L549.814 595.1L553.934 601H552.234ZM546.274 596.32V595.1H549.594V596.32H546.274ZM549.954 595.9L548.594 595.7L552.094 590.5H553.634L549.954 595.9ZM539.794 601H538.094L542.214 595.1L543.374 595.8L539.794 601ZM546.714 601H545.294V590.5H546.714V601ZM545.734 596.32H542.434V595.1H545.734V596.32ZM542.094 595.9L538.394 590.5H539.934L543.414 595.7L542.094 595.9ZM556.297 601V590.5H557.717V598.84L564.737 590.5H565.997V601H564.577V592.64L557.577 601H556.297Z" fill="black"/>
<path d="M1037.7 511.32L1038.24 510.26C1038.85 510.793 1039.54 511.193 1040.3 511.46C1041.07 511.713 1041.85 511.847 1042.62 511.86C1043.39 511.86 1044.1 511.747 1044.74 511.52C1045.39 511.293 1045.92 510.96 1046.32 510.52C1046.72 510.067 1046.92 509.52 1046.92 508.88C1046.92 508.067 1046.59 507.44 1045.94 507C1045.3 506.56 1044.41 506.34 1043.26 506.34H1040.26V505.14H1043.18C1044.17 505.14 1044.93 504.933 1045.48 504.52C1046.04 504.093 1046.32 503.507 1046.32 502.76C1046.32 502.227 1046.16 501.773 1045.84 501.4C1045.53 501.013 1045.11 500.72 1044.56 500.52C1044.03 500.307 1043.43 500.193 1042.76 500.18C1042.09 500.153 1041.4 500.24 1040.68 500.44C1039.97 500.627 1039.29 500.927 1038.62 501.34L1038.14 500.12C1038.97 499.627 1039.83 499.287 1040.72 499.1C1041.61 498.9 1042.48 498.833 1043.32 498.9C1044.16 498.967 1044.91 499.16 1045.58 499.48C1046.26 499.8 1046.8 500.22 1047.2 500.74C1047.6 501.26 1047.8 501.88 1047.8 502.6C1047.8 503.267 1047.63 503.853 1047.28 504.36C1046.95 504.867 1046.47 505.26 1045.86 505.54C1045.26 505.807 1044.55 505.94 1043.72 505.94L1043.8 505.5C1044.73 505.5 1045.54 505.647 1046.22 505.94C1046.91 506.233 1047.45 506.653 1047.82 507.2C1048.21 507.733 1048.4 508.36 1048.4 509.08C1048.4 509.76 1048.23 510.367 1047.88 510.9C1047.55 511.42 1047.08 511.86 1046.48 512.22C1045.89 512.567 1045.23 512.82 1044.5 512.98C1043.77 513.127 1043 513.167 1042.2 513.1C1041.4 513.033 1040.61 512.86 1039.84 512.58C1039.07 512.287 1038.35 511.867 1037.7 511.32ZM1058.25 513V510.68L1058.19 510.3V506.42C1058.19 505.527 1057.94 504.84 1057.43 504.36C1056.94 503.88 1056.2 503.64 1055.21 503.64C1054.53 503.64 1053.89 503.753 1053.27 503.98C1052.66 504.207 1052.14 504.507 1051.71 504.88L1051.07 503.82C1051.61 503.367 1052.25 503.02 1052.99 502.78C1053.74 502.527 1054.53 502.4 1055.35 502.4C1056.71 502.4 1057.76 502.74 1058.49 503.42C1059.24 504.087 1059.61 505.107 1059.61 506.48V513H1058.25ZM1054.63 513.1C1053.85 513.1 1053.16 512.973 1052.57 512.72C1052 512.453 1051.56 512.093 1051.25 511.64C1050.95 511.173 1050.79 510.64 1050.79 510.04C1050.79 509.493 1050.92 509 1051.17 508.56C1051.44 508.107 1051.87 507.747 1052.45 507.48C1053.05 507.2 1053.85 507.06 1054.85 507.06H1058.47V508.12H1054.89C1053.88 508.12 1053.17 508.3 1052.77 508.66C1052.39 509.02 1052.19 509.467 1052.19 510C1052.19 510.6 1052.43 511.08 1052.89 511.44C1053.36 511.8 1054.01 511.98 1054.85 511.98C1055.65 511.98 1056.34 511.8 1056.91 511.44C1057.5 511.067 1057.93 510.533 1058.19 509.84L1058.51 510.82C1058.25 511.513 1057.78 512.067 1057.11 512.48C1056.46 512.893 1055.63 513.1 1054.63 513.1ZM1063.4 513V502.5H1072.84V513H1071.42V503.36L1071.78 503.74H1064.46L1064.82 503.36V513H1063.4ZM1077.05 516.98C1076.56 516.98 1076.08 516.9 1075.63 516.74C1075.19 516.58 1074.81 516.34 1074.49 516.02L1075.15 514.96C1075.42 515.213 1075.7 515.407 1076.01 515.54C1076.33 515.687 1076.68 515.76 1077.07 515.76C1077.54 515.76 1077.94 515.627 1078.27 515.36C1078.62 515.107 1078.94 514.653 1079.25 514L1079.93 512.46L1080.09 512.24L1084.41 502.5H1085.81L1080.55 514.26C1080.26 514.94 1079.93 515.48 1079.57 515.88C1079.22 516.28 1078.84 516.56 1078.43 516.72C1078.02 516.893 1077.56 516.98 1077.05 516.98ZM1079.85 513.3L1075.01 502.5H1076.49L1080.77 512.14L1079.85 513.3ZM1092.13 513.1C1091.09 513.1 1090.16 512.873 1089.33 512.42C1088.52 511.953 1087.88 511.32 1087.41 510.52C1086.94 509.707 1086.71 508.78 1086.71 507.74C1086.71 506.687 1086.94 505.76 1087.41 504.96C1087.88 504.16 1088.52 503.533 1089.33 503.08C1090.16 502.627 1091.09 502.4 1092.13 502.4C1093.02 502.4 1093.83 502.573 1094.55 502.92C1095.27 503.267 1095.84 503.787 1096.25 504.48L1095.19 505.2C1094.83 504.667 1094.38 504.273 1093.85 504.02C1093.32 503.767 1092.74 503.64 1092.11 503.64C1091.36 503.64 1090.69 503.813 1090.09 504.16C1089.49 504.493 1089.02 504.967 1088.67 505.58C1088.32 506.193 1088.15 506.913 1088.15 507.74C1088.15 508.567 1088.32 509.287 1088.67 509.9C1089.02 510.513 1089.49 510.993 1090.09 511.34C1090.69 511.673 1091.36 511.84 1092.11 511.84C1092.74 511.84 1093.32 511.713 1093.85 511.46C1094.38 511.207 1094.83 510.82 1095.19 510.3L1096.25 511.02C1095.84 511.7 1095.27 512.22 1094.55 512.58C1093.83 512.927 1093.02 513.1 1092.13 513.1ZM1106.7 513L1102.38 507.8L1103.56 507.1L1108.38 513H1106.7ZM1099 513V502.5H1100.42V513H1099ZM1099.98 508.32V507.1H1103.36V508.32H1099.98ZM1103.68 507.9L1102.36 507.7L1106.54 502.5H1108.08L1103.68 507.9ZM1123.56 513L1119.24 507.8L1120.42 507.1L1125.24 513H1123.56ZM1115.86 513V502.5H1117.28V513H1115.86ZM1116.84 508.32V507.1H1120.22V508.32H1116.84ZM1120.54 507.9L1119.22 507.7L1123.4 502.5H1124.94L1120.54 507.9ZM1131.43 513.1C1130.41 513.1 1129.5 512.873 1128.69 512.42C1127.89 511.953 1127.25 511.32 1126.79 510.52C1126.32 509.707 1126.09 508.78 1126.09 507.74C1126.09 506.687 1126.32 505.76 1126.79 504.96C1127.25 504.16 1127.89 503.533 1128.69 503.08C1129.49 502.627 1130.4 502.4 1131.43 502.4C1132.47 502.4 1133.39 502.627 1134.19 503.08C1135 503.533 1135.63 504.16 1136.09 504.96C1136.55 505.76 1136.79 506.687 1136.79 507.74C1136.79 508.78 1136.55 509.707 1136.09 510.52C1135.63 511.32 1135 511.953 1134.19 512.42C1133.37 512.873 1132.45 513.1 1131.43 513.1ZM1131.43 511.84C1132.19 511.84 1132.86 511.673 1133.45 511.34C1134.03 510.993 1134.49 510.513 1134.83 509.9C1135.17 509.273 1135.35 508.553 1135.35 507.74C1135.35 506.913 1135.17 506.193 1134.83 505.58C1134.49 504.967 1134.03 504.493 1133.45 504.16C1132.86 503.813 1132.19 503.64 1131.45 503.64C1130.7 503.64 1130.03 503.813 1129.45 504.16C1128.86 504.493 1128.39 504.967 1128.05 505.58C1127.7 506.193 1127.53 506.913 1127.53 507.74C1127.53 508.553 1127.7 509.273 1128.05 509.9C1128.39 510.513 1128.86 510.993 1129.45 511.34C1130.03 511.673 1130.69 511.84 1131.43 511.84ZM1139.82 513V502.5H1144.46C1145.65 502.5 1146.58 502.727 1147.26 503.18C1147.95 503.633 1148.3 504.3 1148.3 505.18C1148.3 506.033 1147.97 506.693 1147.32 507.16C1146.67 507.613 1145.81 507.84 1144.74 507.84L1145.02 507.42C1146.27 507.42 1147.19 507.653 1147.78 508.12C1148.37 508.587 1148.66 509.26 1148.66 510.14C1148.66 511.047 1148.33 511.753 1147.66 512.26C1147.01 512.753 1145.99 513 1144.6 513H1139.82ZM1141.2 511.88H1144.54C1145.43 511.88 1146.11 511.74 1146.56 511.46C1147.03 511.167 1147.26 510.7 1147.26 510.06C1147.26 509.42 1147.05 508.953 1146.64 508.66C1146.23 508.367 1145.57 508.22 1144.68 508.22H1141.2V511.88ZM1141.2 507.16H1144.36C1145.17 507.16 1145.79 507.007 1146.22 506.7C1146.66 506.393 1146.88 505.947 1146.88 505.36C1146.88 504.773 1146.66 504.333 1146.22 504.04C1145.79 503.747 1145.17 503.6 1144.36 503.6H1141.2V507.16ZM1156.31 513.1C1155.3 513.1 1154.38 512.873 1153.57 512.42C1152.77 511.953 1152.14 511.32 1151.67 510.52C1151.2 509.707 1150.97 508.78 1150.97 507.74C1150.97 506.687 1151.2 505.76 1151.67 504.96C1152.14 504.16 1152.77 503.533 1153.57 503.08C1154.37 502.627 1155.28 502.4 1156.31 502.4C1157.35 502.4 1158.27 502.627 1159.07 503.08C1159.88 503.533 1160.52 504.16 1160.97 504.96C1161.44 505.76 1161.67 506.687 1161.67 507.74C1161.67 508.78 1161.44 509.707 1160.97 510.52C1160.52 511.32 1159.88 511.953 1159.07 512.42C1158.26 512.873 1157.34 513.1 1156.31 513.1ZM1156.31 511.84C1157.07 511.84 1157.74 511.673 1158.33 511.34C1158.92 510.993 1159.38 510.513 1159.71 509.9C1160.06 509.273 1160.23 508.553 1160.23 507.74C1160.23 506.913 1160.06 506.193 1159.71 505.58C1159.38 504.967 1158.92 504.493 1158.33 504.16C1157.74 503.813 1157.08 503.64 1156.33 503.64C1155.58 503.64 1154.92 503.813 1154.33 504.16C1153.74 504.493 1153.28 504.967 1152.93 505.58C1152.58 506.193 1152.41 506.913 1152.41 507.74C1152.41 508.553 1152.58 509.273 1152.93 509.9C1153.28 510.513 1153.74 510.993 1154.33 511.34C1154.92 511.673 1155.58 511.84 1156.31 511.84ZM1170.12 513.1C1169.22 513.1 1168.4 512.893 1167.66 512.48C1166.93 512.053 1166.34 511.447 1165.9 510.66C1165.48 509.86 1165.26 508.887 1165.26 507.74C1165.26 506.593 1165.48 505.627 1165.9 504.84C1166.33 504.04 1166.91 503.433 1167.64 503.02C1168.38 502.607 1169.2 502.4 1170.12 502.4C1171.12 502.4 1172.02 502.627 1172.8 503.08C1173.6 503.52 1174.23 504.147 1174.68 504.96C1175.14 505.76 1175.36 506.687 1175.36 507.74C1175.36 508.807 1175.14 509.74 1174.68 510.54C1174.23 511.34 1173.6 511.967 1172.8 512.42C1172.02 512.873 1171.12 513.1 1170.12 513.1ZM1164.7 516.88V502.5H1166.06V505.66L1165.92 507.76L1166.12 509.88V516.88H1164.7ZM1170.02 511.84C1170.77 511.84 1171.44 511.673 1172.02 511.34C1172.61 510.993 1173.08 510.513 1173.42 509.9C1173.77 509.273 1173.94 508.553 1173.94 507.74C1173.94 506.927 1173.77 506.213 1173.42 505.6C1173.08 504.987 1172.61 504.507 1172.02 504.16C1171.44 503.813 1170.77 503.64 1170.02 503.64C1169.28 503.64 1168.6 503.813 1168 504.16C1167.42 504.507 1166.95 504.987 1166.6 505.6C1166.27 506.213 1166.1 506.927 1166.1 507.74C1166.1 508.553 1166.27 509.273 1166.6 509.9C1166.95 510.513 1167.42 510.993 1168 511.34C1168.6 511.673 1169.28 511.84 1170.02 511.84ZM1186.11 513L1181.79 507.8L1182.97 507.1L1187.79 513H1186.11ZM1178.41 513V502.5H1179.83V513H1178.41ZM1179.39 508.32V507.1H1182.77V508.32H1179.39ZM1183.09 507.9L1181.77 507.7L1185.95 502.5H1187.49L1183.09 507.9ZM1190.04 513V502.5H1191.46V510.84L1198.48 502.5H1199.74V513H1198.32V504.64L1191.32 513H1190.04ZM1203.81 513V502.5H1205.23V507.14H1211.85V502.5H1213.27V513H1211.85V508.36H1205.23V513H1203.81ZM1217.3 513V502.5H1224.74V503.74H1218.36L1218.72 503.38V513H1217.3ZM1233.31 513V510.68L1233.25 510.3V506.42C1233.25 505.527 1233 504.84 1232.49 504.36C1232 503.88 1231.26 503.64 1230.27 503.64C1229.59 503.64 1228.95 503.753 1228.33 503.98C1227.72 504.207 1227.2 504.507 1226.77 504.88L1226.13 503.82C1226.67 503.367 1227.31 503.02 1228.05 502.78C1228.8 502.527 1229.59 502.4 1230.41 502.4C1231.77 502.4 1232.82 502.74 1233.55 503.42C1234.3 504.087 1234.67 505.107 1234.67 506.48V513H1233.31ZM1229.69 513.1C1228.91 513.1 1228.22 512.973 1227.63 512.72C1227.06 512.453 1226.62 512.093 1226.31 511.64C1226.01 511.173 1225.85 510.64 1225.85 510.04C1225.85 509.493 1225.98 509 1226.23 508.56C1226.5 508.107 1226.93 507.747 1227.51 507.48C1228.11 507.2 1228.91 507.06 1229.91 507.06H1233.53V508.12H1229.95C1228.94 508.12 1228.23 508.3 1227.83 508.66C1227.45 509.02 1227.25 509.467 1227.25 510C1227.25 510.6 1227.49 511.08 1227.95 511.44C1228.42 511.8 1229.07 511.98 1229.91 511.98C1230.71 511.98 1231.4 511.8 1231.97 511.44C1232.56 511.067 1232.99 510.533 1233.25 509.84L1233.57 510.82C1233.31 511.513 1232.84 512.067 1232.17 512.48C1231.52 512.893 1230.69 513.1 1229.69 513.1Z" fill="black"/>
<g clip-path="url(#clip0_556_3)">
<path d="M733.773 6.01562C734.247 6.83594 734.676 7.61979 735.059 8.36719C735.441 9.11458 735.788 9.87109 736.098 10.6367C736.408 11.4023 736.626 12.1953 736.754 13.0156C736.882 13.8359 736.964 14.7474 737 15.75C737 17.1901 736.818 18.5755 736.453 19.9062C736.089 21.237 735.56 22.4948 734.867 23.6797C734.174 24.8646 733.345 25.931 732.379 26.8789C731.413 27.8268 730.346 28.6471 729.18 29.3398C728.013 30.0326 726.764 30.5612 725.434 30.9258C724.103 31.2904 722.708 31.4818 721.25 31.5C720.831 31.5 720.411 31.4818 719.992 31.4453C719.573 31.4089 719.145 31.3542 718.707 31.2812L696.668 53.3203C695.793 54.1953 694.799 54.8607 693.688 55.3164C692.576 55.7721 691.4 56 690.16 56C688.902 56 687.717 55.763 686.605 55.2891C685.493 54.8151 684.527 54.1589 683.707 53.3203C682.887 52.4818 682.23 51.5065 681.738 50.3945C681.246 49.2826 681 48.0977 681 46.8398C681 45.6185 681.228 44.4518 681.684 43.3398C682.139 42.2279 682.805 41.2253 683.68 40.332L705.719 18.293C705.646 17.8737 705.591 17.4544 705.555 17.0352C705.518 16.6159 705.5 16.1875 705.5 15.75C705.5 14.3099 705.682 12.9245 706.047 11.5938C706.411 10.263 706.94 9.00521 707.633 7.82031C708.326 6.63542 709.155 5.56901 710.121 4.62109C711.087 3.67318 712.154 2.85286 713.32 2.16016C714.487 1.46745 715.736 0.938802 717.066 0.574219C718.397 0.209635 719.792 0.0182292 721.25 0C722.234 0 723.137 0.0729167 723.957 0.21875C724.777 0.364583 725.579 0.592448 726.363 0.902344C727.147 1.21224 727.904 1.54948 728.633 1.91406C729.362 2.27865 730.146 2.71615 730.984 3.22656L720.211 14L723 16.7891L733.773 6.01562ZM721.25 28C722.945 28 724.531 27.681 726.008 27.043C727.484 26.4049 728.779 25.5299 729.891 24.418C731.003 23.306 731.878 22.0117 732.516 20.5352C733.154 19.0586 733.482 17.4635 733.5 15.75C733.5 14.4193 733.281 13.1341 732.844 11.8945L723 21.7109L715.289 14L725.105 4.15625C723.866 3.71875 722.581 3.5 721.25 3.5C719.555 3.5 717.969 3.81901 716.492 4.45703C715.016 5.09505 713.721 5.97005 712.609 7.08203C711.497 8.19401 710.622 9.48828 709.984 10.9648C709.346 12.4414 709.018 14.0365 709 15.75C709 16.388 709.055 17.0078 709.164 17.6094C709.273 18.2109 709.401 18.8125 709.547 19.4141L686.168 42.8203C685.639 43.349 685.229 43.9596 684.938 44.6523C684.646 45.3451 684.5 46.0742 684.5 46.8398C684.5 47.6055 684.646 48.3346 684.938 49.0273C685.229 49.7201 685.639 50.3216 686.168 50.832C686.697 51.3424 687.298 51.7435 687.973 52.0352C688.647 52.3268 689.376 52.4818 690.16 52.5C690.926 52.5 691.655 52.3542 692.348 52.0625C693.04 51.7708 693.651 51.3607 694.18 50.832L717.586 27.4531C718.188 27.599 718.789 27.7266 719.391 27.8359C719.992 27.9453 720.612 28 721.25 28Z" fill="#6B6353"/>
</g>
<rect width="69" height="69" transform="translate(247 248)" fill="white"/>
<path d="M287.25 273.228C287.25 272.797 287.406 272.353 287.719 271.897C288.029 271.443 288.376 271.144 288.759 271C290.149 270.521 291.539 270.161 292.928 269.922C294.318 269.682 295.779 269.562 297.312 269.562C298.271 269.562 299.218 269.622 300.153 269.741C301.086 269.861 302.008 270.018 302.919 270.209C303.35 270.305 303.721 270.545 304.031 270.928C304.344 271.311 304.5 271.743 304.5 272.222C304.5 273.036 304.236 273.635 303.709 274.019C303.182 274.402 302.511 274.498 301.697 274.306C301.026 274.162 300.32 274.054 299.578 273.981C298.834 273.91 298.079 273.875 297.312 273.875C296.067 273.875 294.845 273.995 293.647 274.234C292.449 274.474 291.299 274.785 290.197 275.169C289.334 275.504 288.628 275.48 288.078 275.097C287.526 274.714 287.25 274.091 287.25 273.228ZM287.25 289.041C287.25 288.609 287.406 288.166 287.719 287.71C288.029 287.255 288.376 286.956 288.759 286.812C290.149 286.333 291.539 285.974 292.928 285.734C294.318 285.495 295.779 285.375 297.312 285.375C298.271 285.375 299.218 285.434 300.153 285.553C301.086 285.674 302.008 285.83 302.919 286.022C303.35 286.118 303.721 286.357 304.031 286.741C304.344 287.124 304.5 287.555 304.5 288.034C304.5 288.849 304.236 289.448 303.709 289.831C303.182 290.215 302.511 290.31 301.697 290.119C301.026 289.975 300.32 289.867 299.578 289.794C298.834 289.723 298.079 289.688 297.312 289.688C296.067 289.688 294.845 289.796 293.647 290.012C292.449 290.227 291.299 290.526 290.197 290.909C289.334 291.245 288.628 291.232 288.078 290.872C287.526 290.514 287.25 289.903 287.25 289.041ZM287.25 281.134C287.25 280.703 287.406 280.259 287.719 279.803C288.029 279.349 288.376 279.05 288.759 278.906C290.149 278.427 291.539 278.068 292.928 277.828C294.318 277.589 295.779 277.469 297.312 277.469C298.271 277.469 299.218 277.528 300.153 277.647C301.086 277.768 302.008 277.924 302.919 278.116C303.35 278.211 303.721 278.451 304.031 278.834C304.344 279.218 304.5 279.649 304.5 280.128C304.5 280.943 304.236 281.542 303.709 281.925C303.182 282.308 302.511 282.404 301.697 282.212C301.026 282.069 300.32 281.96 299.578 281.888C298.834 281.817 298.079 281.781 297.312 281.781C296.067 281.781 294.845 281.901 293.647 282.141C292.449 282.38 291.299 282.692 290.197 283.075C289.334 283.41 288.628 283.386 288.078 283.003C287.526 282.62 287.25 281.997 287.25 281.134ZM265.688 294C267.94 294 270.132 294.251 272.266 294.753C274.397 295.257 276.517 296.012 278.625 297.019V268.7C276.66 267.55 274.576 266.688 272.372 266.113C270.168 265.538 267.94 265.25 265.688 265.25C263.962 265.25 262.25 265.418 260.55 265.753C258.848 266.089 257.206 266.592 255.625 267.262V295.725C257.302 295.15 258.968 294.719 260.622 294.431C262.274 294.144 263.962 294 265.688 294ZM284.375 297.019C286.483 296.012 288.604 295.257 290.737 294.753C292.869 294.251 295.06 294 297.312 294C299.037 294 300.727 294.144 302.381 294.431C304.033 294.719 305.698 295.15 307.375 295.725V267.262C305.794 266.592 304.153 266.089 302.453 265.753C300.751 265.418 299.037 265.25 297.312 265.25C295.06 265.25 292.832 265.538 290.628 266.113C288.424 266.688 286.34 267.55 284.375 268.7V297.019ZM281.5 303.991C280.829 303.991 280.195 303.907 279.597 303.741C278.997 303.572 278.433 303.344 277.906 303.056C276.038 301.954 274.073 301.128 272.012 300.578C269.952 300.026 267.844 299.75 265.688 299.75C263.675 299.75 261.699 300.014 259.759 300.541C257.818 301.068 255.96 301.81 254.188 302.769C253.181 303.296 252.211 303.272 251.278 302.697C250.343 302.122 249.875 301.283 249.875 300.181V265.537C249.875 265.01 250.007 264.507 250.272 264.028C250.534 263.549 250.929 263.19 251.456 262.95C253.66 261.8 255.96 260.938 258.356 260.363C260.752 259.788 263.196 259.5 265.688 259.5C268.467 259.5 271.186 259.859 273.847 260.578C276.505 261.297 279.056 262.375 281.5 263.812C283.944 262.375 286.496 261.297 289.156 260.578C291.815 259.859 294.533 259.5 297.312 259.5C299.804 259.5 302.248 259.788 304.644 260.363C307.04 260.938 309.34 261.8 311.544 262.95C312.071 263.19 312.467 263.549 312.731 264.028C312.994 264.507 313.125 265.01 313.125 265.537V300.181C313.125 301.283 312.658 302.122 311.725 302.697C310.79 303.272 309.819 303.296 308.812 302.769C307.04 301.81 305.182 301.068 303.241 300.541C301.301 300.014 299.325 299.75 297.312 299.75C295.156 299.75 293.048 300.026 290.987 300.578C288.927 301.128 286.963 301.954 285.094 303.056C284.567 303.344 284.004 303.572 283.406 303.741C282.806 303.907 282.171 303.991 281.5 303.991Z" fill="#6B6353"/>
<rect width="69" height="69" transform="translate(942 204)" fill="white"/>
<path d="M976.5 250L988 238.5H979.375V212.625H973.625V238.5H965L976.5 250ZM1002.38 212.625H985.125V218.346H1002.38V258.683H950.625V218.346H967.875V212.625H950.625C947.462 212.625 944.875 215.212 944.875 218.375V258.625C944.875 261.787 947.462 264.375 950.625 264.375H1002.38C1005.54 264.375 1008.12 261.787 1008.12 258.625V218.375C1008.12 215.212 1005.54 212.625 1002.38 212.625ZM976.5 250L988 238.5H979.375V212.625H973.625V238.5H965L976.5 250ZM1008.12 212.625H985.125V218.346H1002.38V258.683H950.625V218.346H967.875V212.625H944.875V264.375H1008.12V212.625Z" fill="#6B6353"/>
<rect width="69" height="69" transform="translate(382 471)" fill="white"/>
<path d="M439.5 485.375C437.775 485.375 436.625 486.812 436.625 488.537V517C436.625 518.725 437.775 519.875 439.5 520.163C441.225 520.163 442.375 518.725 442.375 517V488.537C442.375 486.812 441.225 485.375 439.5 485.375ZM429.15 476.75H395.225C392.637 476.75 390.625 478.762 390.625 481.35V521.025C390.625 523.612 392.637 525.625 395.225 525.625H399.25V531.375C399.25 533.1 400.4 534.25 402.125 534.25H419.375C421.1 534.25 422.25 533.1 422.25 531.375V525.625H429.15C431.737 525.625 433.75 523.612 433.75 521.025V481.35C433.75 478.762 431.737 476.75 429.15 476.75ZM396.375 494H405V499.75H396.375V494ZM416.5 502.625V508.375H407.875V502.625H416.5ZM407.875 499.75V494H416.5V499.75H407.875ZM416.5 511.25V517H407.875V511.25H416.5ZM396.375 502.625H405V508.375H396.375V502.625ZM396.375 517V511.25H405V517H396.375ZM405 531.375H402.125V525.625H405V531.375ZM419.375 531.375H410.75V525.625H419.375V531.375ZM428 517H419.375V511.25H428V517ZM428 508.375H419.375V502.625H428V508.375ZM428 499.75H419.375V494H428V499.75ZM428 488.25H396.375V482.5H428V488.25Z" fill="#6B6353"/>
<rect width="69" height="69" transform="translate(1102 387)" fill="white"/>
<path d="M1160.94 404.25C1153.43 406.262 1144.64 407.125 1136.5 407.125C1128.36 407.125 1119.57 406.262 1112.06 404.25L1110.62 410C1115.97 411.438 1122.12 412.386 1127.88 412.875V450.25H1133.62V433H1139.38V450.25H1145.12V412.875C1150.88 412.386 1157.03 411.438 1162.38 410L1160.94 404.25ZM1136.5 404.25C1139.66 404.25 1142.25 401.663 1142.25 398.5C1142.25 395.337 1139.66 392.75 1136.5 392.75C1133.34 392.75 1130.75 395.337 1130.75 398.5C1130.75 401.663 1133.34 404.25 1136.5 404.25Z" fill="#6B6353"/>
<defs>
<filter id="filter0_d_556_3" x="429.745" y="283" width="118.5" height="118.5" filterUnits="userSpaceOnUse" color-interpolation-filters="sRGB">
<feFlood flood-opacity="0" result="BackgroundImageFix"/>
<feColorMatrix in="SourceAlpha" type="matrix" values="0 0 0 0 0 0 0 0 0 0 0 0 0 0 0 0 0 0 127 0" result="hardAlpha"/>
<feOffset dy="3"/>
<feGaussianBlur stdDeviation="1.5"/>
<feComposite in2="hardAlpha" operator="out"/>
<feColorMatrix type="matrix" values="0 0 0 0 0 0 0 0 0 0 0 0 0 0 0 0 0 0 0.1 0"/>
<feBlend mode="normal" in2="BackgroundImageFix" result="effect1_dropShadow_556_3"/>
<feBlend mode="normal" in="SourceGraphic" in2="effect1_dropShadow_556_3" result="shape"/>
</filter>
<filter id="filter1_d_556_3" x="642.745" y="288" width="118.5" height="118.5" filterUnits="userSpaceOnUse" color-interpolation-filters="sRGB">
<feFlood flood-opacity="0" result="BackgroundImageFix"/>
<feColorMatrix in="SourceAlpha" type="matrix" values="0 0 0 0 0 0 0 0 0 0 0 0 0 0 0 0 0 0 127 0" result="hardAlpha"/>
<feOffset dy="3"/>
<feGaussianBlur stdDeviation="1.5"/>
<feComposite in2="hardAlpha" operator="out"/>
<feColorMatrix type="matrix" values="0 0 0 0 0 0 0 0 0 0 0 0 0 0 0 0 0 0 0.1 0"/>
<feBlend mode="normal" in2="BackgroundImageFix" result="effect1_dropShadow_556_3"/>
<feBlend mode="normal" in="SourceGraphic" in2="effect1_dropShadow_556_3" result="shape"/>
</filter>
<filter id="filter2_d_556_3" x="629.745" y="497" width="118.5" height="118.5" filterUnits="userSpaceOnUse" color-interpolation-filters="sRGB">
<feFlood flood-opacity="0" result="BackgroundImageFix"/>
<feColorMatrix in="SourceAlpha" type="matrix" values="0 0 0 0 0 0 0 0 0 0 0 0 0 0 0 0 0 0 127 0" result="hardAlpha"/>
<feOffset dy="3"/>
<feGaussianBlur stdDeviation="1.5"/>
<feComposite in2="hardAlpha" operator="out"/>
<feColorMatrix type="matrix" values="0 0 0 0 0 0 0 0 0 0 0 0 0 0 0 0 0 0 0.1 0"/>
<feBlend mode="normal" in2="BackgroundImageFix" result="effect1_dropShadow_556_3"/>
<feBlend mode="normal" in="SourceGraphic" in2="effect1_dropShadow_556_3" result="shape"/>
</filter>
<filter id="filter3_d_556_3" x="845.745" y="467" width="118.5" height="118.5" filterUnits="userSpaceOnUse" color-interpolation-filters="sRGB">
<feFlood flood-opacity="0" result="BackgroundImageFix"/>
<feColorMatrix in="SourceAlpha" type="matrix" values="0 0 0 0 0 0 0 0 0 0 0 0 0 0 0 0 0 0 127 0" result="hardAlpha"/>
<feOffset dy="3"/>
<feGaussianBlur stdDeviation="1.5"/>
<feComposite in2="hardAlpha" operator="out"/>
<feColorMatrix type="matrix" values="0 0 0 0 0 0 0 0 0 0 0 0 0 0 0 0 0 0 0.1 0"/>
<feBlend mode="normal" in2="BackgroundImageFix" result="effect1_dropShadow_556_3"/>
<feBlend mode="normal" in="SourceGraphic" in2="effect1_dropShadow_556_3" result="shape"/>
</filter>
<filter id="filter4_d_556_3" x="435.745" y="73" width="118.5" height="118.5" filterUnits="userSpaceOnUse" color-interpolation-filters="sRGB">
<feFlood flood-opacity="0" result="BackgroundImageFix"/>
<feColorMatrix in="SourceAlpha" type="matrix" values="0 0 0 0 0 0 0 0 0 0 0 0 0 0 0 0 0 0 127 0" result="hardAlpha"/>
<feOffset dy="3"/>
<feGaussianBlur stdDeviation="1.5"/>
<feComposite in2="hardAlpha" operator="out"/>
<feColorMatrix type="matrix" values="0 0 0 0 0 0 0 0 0 0 0 0 0 0 0 0 0 0 0.1 0"/>
<feBlend mode="normal" in2="BackgroundImageFix" result="effect1_dropShadow_556_3"/>
<feBlend mode="normal" in="SourceGraphic" in2="effect1_dropShadow_556_3" result="shape"/>
</filter>
<clipPath id="clip0_556_3">
<rect width="56" height="56" fill="white" transform="translate(681)"/>
</clipPath>
</defs>
</svg>
